<?xml version="1.0" ?><!DOCTYPE svg  PUBLIC '-//W3C//DTD SVG 1.1//EN'  'http://www.w3.org/Graphics/SVG/1.1/DTD/svg11.dtd'><svg height="512px" style="enable-background:new 0 0 512 512;" version="1.1" viewBox="0 0 512 512" width="512px" xml:space="preserve" xmlns="http://www.w3.org/2000/svg" xmlns:xlink="http://www.w3.org/1999/xlink"><g id="commercial_x2C__cover_x2C__credit_x2C__card_x2C__Diners_x2C__club_x2C__international"><g><path d="M495.951,390.001c0,8.836-7.123,15.959-15.959,15.959H32.012    c-8.748,0-15.963-7.123-15.963-15.959V122.005c0-8.835,7.127-15.965,15.963-15.965h447.98c8.836,0,15.959,7.13,15.959,15.965    V390.001z" style="fill-rule:evenodd;clip-rule:evenodd;fill:#084E94;"/><path d="M267.545,269.62c27.049,0.18,51.85-22.096,51.85-49.146    c0-29.575-24.801-50.051-51.85-50.051h-23.357c-27.502,0-50.045,20.476-50.045,50.051c0,27.05,22.543,49.325,50.045,49.146    H267.545z" style="fill-rule:evenodd;clip-rule:evenodd;fill:#FFFFFF;"/><path d="M254.559,246.804v-53.742    c10.82,4.147,18.484,14.609,18.484,26.871S265.379,242.657,254.559,246.804 M215.514,219.933c0-12.262,7.662-22.724,18.486-26.871    v53.742C223.176,242.657,215.514,232.194,215.514,219.933 M244.279,174.484c-25.068,0-45.447,20.383-45.447,45.448    c0,25.072,20.379,45.356,45.447,45.449c25.066-0.093,45.354-20.377,45.354-45.449    C289.633,194.867,269.346,174.484,244.279,174.484L244.279,174.484z" style="fill-rule:evenodd;clip-rule:evenodd;fill:#084E94;"/><path d="M143.373,303.522c0,3.968,2.887,4.51,5.502,4.51    c11.271,0,15.061-8.564,15.061-16.414c0-9.828-6.313-16.859-16.414-16.859c-2.164,0-3.152,0.18-4.148,0.18V303.522    L143.373,303.522z M138.234,278.906c0-4.782-2.436-4.418-4.777-4.511v-1.349c1.982,0.092,4.146,0.092,6.131,0.092    c2.254,0,5.23-0.092,9.107-0.092c13.615,0,21.01,9.106,21.01,18.392c0,5.139-3.064,18.215-21.643,18.215    c-2.705,0-5.139-0.086-7.572-0.086c-2.346,0-4.691,0.086-7.033,0.086v-1.35c3.154-0.271,4.688-0.45,4.777-3.969V278.906z" style="fill-rule:evenodd;clip-rule:evenodd;fill:#FFFFFF;"/><path d="M177.1,277.644c-1.352,0-2.523-1.264-2.523-2.613    c0-1.355,1.26-2.525,2.523-2.525c1.352,0,2.615,1.084,2.615,2.525C179.715,276.38,178.541,277.644,177.1,277.644 M171.508,308.304    h0.992c1.445,0,2.527,0,2.527-1.713v-14.246c0-2.256-0.814-2.619-2.707-3.61v-0.899c2.436-0.721,5.41-1.713,5.592-1.893    c0.361-0.184,0.721-0.271,0.9-0.271c0.271,0,0.449,0.358,0.449,0.809v20.111c0,1.713,1.084,1.713,2.615,1.713h0.904v1.35    c-1.807,0-3.697-0.086-5.504-0.086c-1.891,0-3.785,0.086-5.77,0.086V308.304L171.508,308.304z" style="fill-rule:evenodd;clip-rule:evenodd;fill:#FFFFFF;"/><path d="M187.74,292.702c0-1.984-0.631-2.525-3.064-3.519v-0.991    c2.252-0.721,4.418-1.35,6.943-2.521c0.18,0,0.268,0.18,0.268,0.537v3.432c3.07-2.168,5.592-3.969,9.107-3.969    c4.422,0,6.045,3.242,6.045,7.395v13.525c0,1.713,1.17,1.713,2.613,1.713h0.902v1.35c-1.803,0-3.607-0.086-5.5-0.086    c-1.895,0-3.789,0.086-5.684,0.086v-1.35h0.902c1.535,0,2.527,0,2.527-1.713v-13.617c0-2.977-1.807-4.418-4.783-4.418    c-1.711,0-4.324,1.35-6.131,2.526v15.509c0,1.713,1.172,1.713,2.617,1.713h0.992v1.35c-1.803,0-3.697-0.086-5.592-0.086    c-1.893,0-3.787,0.086-5.682,0.086v-1.35h0.992c1.445,0,2.525,0,2.525-1.713V292.702L187.74,292.702z" style="fill-rule:evenodd;clip-rule:evenodd;fill:#FFFFFF;"/><path d="M223.9,293.516c1.264,0,1.441-0.722,1.441-1.356    c0-2.611-1.623-4.774-4.6-4.774c-3.154,0-5.41,2.341-6.041,6.131H223.9z M214.611,295.229c-0.182,0.45-0.182,1.263,0,2.977    c0.271,5.046,3.516,9.106,7.666,9.106c2.887,0,5.139-1.534,7.123-3.518l0.721,0.721c-2.434,3.246-5.41,5.952-9.738,5.952    c-8.295,0-10.01-8.115-10.01-11.448c0-10.284,6.943-13.348,10.641-13.348c4.24,0,8.746,2.706,8.836,8.295    c0,0.271,0,0.628-0.09,0.898l-0.449,0.364H214.611L214.611,295.229z" style="fill-rule:evenodd;clip-rule:evenodd;fill:#FFFFFF;"/><path d="M231.023,308.304h1.441c1.445,0,2.527,0,2.527-1.713v-14.788    c0-1.626-1.984-1.897-2.705-2.348v-0.721c3.785-1.714,5.859-3.063,6.4-3.063c0.271,0,0.451,0.18,0.451,0.723v4.688h0.092    c1.26-1.984,3.516-5.411,6.67-5.411c1.355,0,3.068,0.9,3.068,2.793c0,1.441-0.992,2.704-2.525,2.704    c-1.623,0-1.623-1.263-3.426-1.263c-0.902,0-3.879,1.177-3.879,4.331v12.354c0,1.713,1.082,1.713,2.525,1.713h2.977v1.35    c-2.887,0-5.143-0.086-7.395-0.086c-2.072,0-4.328,0.086-6.223,0.086V308.304L231.023,308.304z" style="fill-rule:evenodd;clip-rule:evenodd;fill:#FFFFFF;"/><path d="M251.221,302.352c0.721,3.519,2.797,6.401,6.584,6.401    c3.154,0,4.328-1.891,4.328-3.697c0-6.223-11.451-4.238-11.451-12.624c0-2.977,2.346-6.761,8.115-6.761    c1.713,0,3.879,0.537,5.953,1.529l0.359,5.323h-1.174c-0.541-3.247-2.344-5.139-5.68-5.139c-2.164,0-4.148,1.171-4.148,3.427    c0,6.13,12.174,4.238,12.174,12.532c0,3.426-2.795,7.123-9.016,7.123c-2.076,0-4.51-0.722-6.404-1.8l-0.543-6.045L251.221,302.352    z" style="fill-rule:evenodd;clip-rule:evenodd;fill:#FFFFFF;"/><path d="M313.621,282.511h-1.264c-0.992-6.131-5.41-8.564-11.27-8.564    c-6.045,0-14.787,4.061-14.787,16.594c0,10.641,7.572,18.213,15.688,18.213c5.139,0,9.471-3.518,10.549-9.014l1.176,0.266    l-1.176,7.664c-2.25,1.355-8.201,2.798-11.627,2.798c-12.27,0-20.02-7.937-20.02-19.749c0-10.727,9.557-18.484,19.834-18.484    c4.24,0,8.387,1.441,12.447,2.797L313.621,282.511z" style="fill-rule:evenodd;clip-rule:evenodd;fill:#FFFFFF;"/><path d="M315.512,308.304h0.992c1.535,0,2.527,0,2.527-1.713v-29.219    c0-3.426-0.721-3.512-2.791-4.146v-0.813c2.162-0.629,4.324-1.62,5.41-2.249c0.629-0.271,0.984-0.543,1.17-0.543    c0.357,0,0.449,0.271,0.449,0.722v36.249c0,1.713,1.172,1.713,2.613,1.713h0.906v1.35c-1.807,0-3.611-0.086-5.504-0.086    c-1.891,0-3.789,0.086-5.773,0.086V308.304L315.512,308.304z" style="fill-rule:evenodd;clip-rule:evenodd;fill:#FFFFFF;"/><path d="M349.242,306.77c0,0.991,0.541,0.991,1.441,0.991    c0.629,0,1.441,0,2.07,0v1.086c-2.25,0.178-6.488,1.262-7.48,1.62l-0.271-0.179v-4.24c-3.154,2.619-5.594,4.419-9.291,4.419    c-2.885,0-5.768-1.8-5.768-6.224v-13.432c0-1.356-0.271-2.705-3.154-2.977v-0.992c1.891,0,6.037-0.363,6.76-0.363    c0.541,0,0.541,0.363,0.541,1.533v13.525c0,1.535,0,6.045,4.596,6.045c1.807,0,4.154-1.355,6.316-3.154V290.36    c0-1.084-2.525-1.626-4.418-2.168V287.2c4.775-0.266,7.666-0.721,8.207-0.721c0.451,0,0.451,0.363,0.451,0.992V306.77z" style="fill-rule:evenodd;clip-rule:evenodd;fill:#FFFFFF;"/><path d="M359.611,303.706c0,2.071,1.893,5.411,5.41,5.411    c5.682,0,8.021-5.503,8.021-10.191c0-5.681-4.324-10.37-8.385-10.37c-1.984,0-3.604,1.263-5.047,2.434V303.706z M359.611,289.455    c2.162-1.8,4.961-3.784,7.844-3.784c6.131,0,9.736,5.318,9.736,11c0,6.943-5.047,13.796-12.533,13.796    c-3.875,0-5.859-1.264-7.303-1.8l-1.533,1.171l-1.084-0.542c0.455-3.154,0.727-6.223,0.727-9.379v-22.545    c0-3.426-0.813-3.512-2.797-4.146v-0.813c2.07-0.629,4.324-1.62,5.41-2.249c0.541-0.271,0.992-0.543,1.17-0.543    c0.271,0,0.363,0.271,0.363,0.722V289.455z" style="fill-rule:evenodd;clip-rule:evenodd;fill:#FFFFFF;"/><path d="M133.363,340.135h0.453c0.992,0,2.074-0.093,2.074-1.626    v-14.875c0-1.534-1.082-1.713-2.074-1.713h-0.453v-0.813c1.086,0,2.799,0.092,4.24,0.092s3.154-0.092,4.508-0.092v0.813h-0.451    c-0.992,0-2.072,0.179-2.072,1.713v14.875c0,1.533,1.08,1.626,2.072,1.626h0.451v0.899c-1.443,0-3.154-0.086-4.508-0.086    c-1.441,0-3.154,0.086-4.24,0.086V340.135L133.363,340.135z" style="fill-rule:evenodd;clip-rule:evenodd;fill:#FFFFFF;"/><path d="M141.932,340.948v-0.635h-0.271    c-0.992,0-2.252-0.179-2.252-1.805v-14.875c0-1.627,1.26-1.805,2.252-1.805h0.271V321.2c-1.264,0-2.975,0.179-4.328,0.179    s-2.977-0.179-4.059-0.179v0.629h0.18c1.084,0,2.256,0.178,2.256,1.805v14.875c0,1.626-1.172,1.805-2.256,1.805h-0.18v0.635    c1.082-0.093,2.705-0.185,4.059-0.185S140.58,340.855,141.932,340.948 M142.111,341.126c-1.443,0-3.154-0.092-4.508-0.092    c-1.441,0-3.064,0.092-4.24,0.092h-0.088v-0.092v-0.899v-0.093h0.088h0.361c1.084,0,1.984-0.086,2.074-1.533v-14.967    c-0.09-1.35-0.99-1.442-2.074-1.442h-0.449v-0.179v-0.992h0.088c1.176,0,2.799,0.18,4.24,0.18s3.154-0.18,4.508-0.18h0.092v0.18    v0.991h-0.092h-0.451c-0.992,0-1.982,0.093-1.982,1.534v14.875c0,1.447,0.99,1.533,1.982,1.533h0.543v0.093v0.991H142.111    L142.111,341.126z" style="fill-rule:evenodd;clip-rule:evenodd;fill:#FFFFFF;"/><path d="M161.68,335.446l0.09-0.094v-10.727    c0-2.348-1.623-2.705-2.527-2.705h-0.627v-0.813c1.352,0,2.705,0.092,4.057,0.092c1.17,0,2.344-0.092,3.426-0.092v0.813h-0.359    c-1.262,0-2.523,0.271-2.523,3.697v12.982c0,0.992,0,1.984,0.088,2.884h-1.084l-14.697-16.409v11.72    c0,2.526,0.541,3.34,2.707,3.34h0.539v0.899c-1.26,0-2.523-0.086-3.697-0.086c-1.264,0-2.613,0.086-3.875,0.086v-0.899h0.361    c1.982,0,2.615-1.264,2.615-3.604v-11.996c0-1.621-1.354-2.527-2.615-2.527h-0.361v-0.898c1.08,0,2.162,0.092,3.246,0.092    c0.9,0,1.713-0.092,2.523-0.092L161.68,335.446z" style="fill-rule:evenodd;clip-rule:evenodd;fill:#FFFFFF;"/><path d="M161.592,335.353L161.592,335.353L161.592,335.353    L161.592,335.353z M161.68,335.446l0.09-0.094L161.68,335.446z M162.219,341.306h0.996c-0.182-0.813-0.182-1.806-0.182-2.705    v-12.982c0-3.426,1.443-3.789,2.705-3.789h0.271V321.2c-1.082,0-2.256,0.179-3.43,0.179c-1.26,0-2.523-0.179-3.787-0.179v0.629    h0.449c0.904,0,2.619,0.363,2.619,2.797v10.82h-0.092l-0.09,0.086L148.965,321.2c-0.811,0-1.623,0.179-2.523,0.179    c-1.084,0-2.166-0.179-3.156-0.179v0.629h0.271c1.352,0,2.703,0.991,2.703,2.705v11.996c0,2.249-0.631,3.783-2.703,3.783h-0.271    v0.542c1.262,0,2.521-0.092,3.785-0.092c1.174,0,2.348,0.092,3.52,0.092v-0.542h-0.361c-2.254,0-2.797-0.992-2.797-3.519v-12.083    L162.219,341.306z M163.303,341.577h-1.172l-14.43-16.144v11.361c0,2.526,0.361,3.247,2.527,3.247h0.629v0.093v0.991h-0.18    c-1.17,0-2.434-0.092-3.607-0.092c-1.264,0-2.613,0.092-3.875,0.092h-0.182v-0.092v-0.992h0.182h0.361    c1.891,0,2.434-1.263,2.434-3.512v-11.996c0-1.535-1.264-2.435-2.434-2.435h-0.543v-0.179v-0.906h0.182    c1.08,0,2.162,0.094,3.246,0.094c0.811,0,1.713-0.094,2.613-0.094l12.537,14.16v-10.549c0-2.256-1.535-2.526-2.35-2.526h-0.717    v-0.179v-0.906h0.09c1.352,0,2.705,0.094,3.965,0.094c1.174,0,2.348-0.094,3.518-0.094h0.182v0.094v0.991h-0.182h-0.359    c-1.172,0-2.436,0.093-2.436,3.519v12.982c0,0.992,0,1.984,0.18,2.798v0.179H163.303L163.303,341.577z" style="fill-rule:evenodd;clip-rule:evenodd;fill:#FFFFFF;"/><path d="M170.426,322.55c-2.162,0-2.254,0.449-2.705,2.618h-0.811    c0.09-0.813,0.27-1.626,0.361-2.439c0.09-0.808,0.18-1.62,0.18-2.435h0.631c0.271,0.814,0.992,0.814,1.713,0.814h14.787    c0.725,0,1.445,0,1.535-0.9l0.631,0.086c-0.088,0.814-0.182,1.535-0.27,2.348c-0.09,0.808-0.09,1.535-0.09,2.342l-0.814,0.271    c-0.088-0.992-0.268-2.705-2.162-2.705h-4.689v15.15c0,2.256,0.992,2.435,2.434,2.435h0.543v0.899    c-1.174,0-3.158-0.086-4.689-0.086c-1.713,0-3.697,0.086-4.871,0.086v-0.899h0.543c1.621,0,2.434-0.093,2.434-2.348V322.55    H170.426L170.426,322.55z" style="fill-rule:evenodd;clip-rule:evenodd;fill:#FFFFFF;"/><path d="M181.699,341.126c-1.174,0-3.158-0.092-4.689-0.092    c-1.713,0-3.697,0.092-4.781,0.092h-0.178v-0.092v-0.992h0.178h0.543c1.531,0,2.166-0.086,2.166-2.255v-15.146h-4.512v-0.092    v-0.18h4.779v15.417c0,2.255-0.902,2.526-2.434,2.526h-0.451v0.542c1.082,0,3.066-0.092,4.689-0.092    c1.531,0,3.426,0.092,4.508,0.092v-0.542h-0.361c-1.441,0-2.523-0.357-2.523-2.613v-15.33h4.779c1.984,0,2.162,1.713,2.256,2.705    l0.627-0.178c0-0.721,0-1.534,0.094-2.256c0-0.721,0.178-1.441,0.271-2.162l-0.453-0.093c-0.09,0.813-0.9,0.813-1.625,0.813    h-14.787h-0.09c-0.721,0-1.441,0-1.713-0.813h-0.453c0,0.813-0.088,1.534-0.178,2.342c-0.09,0.813-0.182,1.534-0.271,2.255h0.543    c0.449-1.984,0.631-2.613,2.793-2.613v0.18v0.092c-2.072,0.087-2.072,0.357-2.521,2.526v0.087h-0.09h-1.084l0.088-0.18    c0.092-0.721,0.271-1.533,0.271-2.434c0.182-0.721,0.182-1.533,0.182-2.348v-0.178h0.18h0.721l0.092,0.092    c0.178,0.721,0.721,0.721,1.441,0.807h0.09h14.787c0.725-0.086,1.354-0.086,1.354-0.807v-0.092h0.182l0.811,0.092v0.179    c-0.18,0.722-0.268,1.534-0.361,2.255c0,0.808,0,1.535,0,2.342v0.092h-0.088l-1.082,0.358v-0.179c0-1.078-0.182-2.613-1.984-2.613    h-4.51V337.7c0,2.164,0.902,2.342,2.254,2.342h0.633v0.093v0.991H181.699L181.699,341.126z" style="fill-rule:evenodd;clip-rule:evenodd;fill:#FFFFFF;"/><path d="M187.648,340.135h0.453c0.992,0,2.072-0.093,2.072-1.626    v-14.875c0-1.534-1.08-1.713-2.072-1.713h-0.453v-0.813c1.805,0,4.781,0.092,7.125,0.092c2.436,0,5.412-0.092,7.307-0.092    c0,1.262,0,3.154,0.088,4.325l-0.902,0.271c-0.09-1.892-0.449-3.334-3.426-3.334h-3.969v7.487h3.338    c1.713,0,2.072-0.993,2.254-2.526h0.902c-0.092,1.078-0.092,2.256-0.092,3.333c0,1.085,0,2.169,0.092,3.247l-0.902,0.18    c-0.182-1.714-0.182-2.791-2.166-2.791h-3.426v6.58c0,1.891,1.625,1.891,3.426,1.891c3.426,0,4.961-0.271,5.771-3.512l0.813,0.271    c-0.359,1.441-0.721,2.97-0.902,4.504c-1.893,0-5.139-0.086-7.666-0.086c-2.615,0-6.041,0.086-7.664,0.086V340.135z" style="fill-rule:evenodd;clip-rule:evenodd;fill:#FFFFFF;"/><path d="M202.801,340.855c0.268-1.355,0.631-2.798,0.99-4.239    l-0.631-0.178c-0.813,3.154-2.438,3.518-5.863,3.426c-1.801,0-3.604,0-3.604-1.984v-6.76h3.604c1.984,0,2.166,1.171,2.346,2.791    l0.543-0.086c0-1.084,0-2.076,0-3.161c0-1.077,0-2.162,0-3.241h-0.543c-0.18,1.529-0.633,2.521-2.434,2.521h-3.516v-7.751h4.146    c2.977,0,3.426,1.533,3.516,3.333l0.631-0.179c0-0.813-0.09-1.805-0.09-2.797c0-0.45,0-0.9,0.09-1.35    c-1.98,0-4.867,0.179-7.213,0.179c-2.344,0-5.23-0.179-6.943-0.179v0.629h0.271c0.992,0,2.254,0.178,2.254,1.805v14.875    c0,1.626-1.262,1.805-2.254,1.805h-0.271v0.542c1.623,0,4.961-0.092,7.482-0.092C197.748,340.764,200.994,340.855,202.801,340.855     M202.979,341.126c-1.893,0-5.139-0.092-7.666-0.092c-2.615,0-6.041,0.092-7.664,0.092h-0.09v-0.092v-0.899v-0.093h0.09h0.453    c0.992,0,1.984-0.086,1.984-1.533v-14.967c0-1.35-0.992-1.442-1.984-1.442h-0.543v-0.179v-0.906h0.09    c1.805,0,4.689,0.094,7.125,0.094s5.322-0.094,7.307-0.094h0.088v0.094c0,0.449,0,0.898,0,1.441c0,0.992,0,2.076,0.09,2.884v0.092    l-0.09,0.093l-0.992,0.271v-0.185c-0.182-1.892-0.453-3.154-3.336-3.24h-3.879v7.209h3.248c1.623,0,1.982-0.809,2.162-2.342    v-0.093h0.092h0.992v0.093c0,1.078-0.09,2.256-0.09,3.333c0,1.085,0.09,2.169,0.09,3.247v0.094h-0.09l-0.994,0.271v-0.185    c-0.18-1.714-0.268-2.705-2.162-2.705h-3.248v6.494c0,1.805,1.535,1.713,3.336,1.805c3.426-0.092,4.871-0.271,5.682-3.426v-0.092    h0.182l0.902,0.179v0.185c-0.453,1.527-0.721,2.97-0.994,4.504v0.092H202.979L202.979,341.126z" style="fill-rule:evenodd;clip-rule:evenodd;fill:#FFFFFF;"/><path d="M211.453,330.757h1.354c2.887,0,4.42-1.084,4.42-4.418    c0-2.613-1.623-4.239-4.148-4.239c-0.9,0-1.26,0.093-1.625,0.179V330.757L211.453,330.757z M207.756,324.083    c0-2.076-1.17-2.162-1.98-2.162h-0.541v-0.813c0.902,0,2.705,0.092,4.418,0.092s3.064-0.092,4.6-0.092    c3.607,0,6.762,0.991,6.762,5.051c0,2.521-1.713,4.147-3.969,4.961l4.871,7.302c0.811,1.263,1.443,1.62,2.795,1.713v0.899    c-0.9,0-1.895-0.086-2.795-0.086c-0.902,0-1.801,0.086-2.705,0.086c-2.166-2.883-4.057-5.952-5.951-9.285h-1.807v6.131    c0,2.255,0.996,2.255,2.256,2.255h0.543v0.899c-1.625,0-3.248-0.086-4.871-0.086c-1.354,0-2.705,0.086-4.146,0.086v-0.899h0.541    c0.992,0,1.98-0.45,1.98-1.534V324.083z" style="fill-rule:evenodd;clip-rule:evenodd;fill:#FFFFFF;"/><path d="M212.807,330.664c2.797-0.086,4.238-1.077,4.332-4.325    c-0.094-2.526-1.625-4.061-4.061-4.061c-0.811,0-1.172,0-1.531,0.092v8.294H212.807z M211.453,330.849h-0.178V322.1h0.09    c0.453,0,0.813-0.093,1.713-0.093c2.525,0,4.238,1.719,4.238,4.332c0,3.334-1.623,4.51-4.51,4.51H211.453z M211.453,331.656h1.896    l0.092,0.093c1.803,3.247,3.697,6.309,5.77,9.199c0.904,0,1.803-0.185,2.705-0.185c0.9,0,1.803,0.092,2.705,0.092v-0.542    c-1.352-0.179-1.984-0.629-2.795-1.805l-4.959-7.389l0.178-0.092c2.166-0.906,3.879-2.348,3.879-4.869    c0-3.967-3.064-4.873-6.672-4.959c-1.535,0-2.887,0.179-4.6,0.179s-3.338-0.179-4.328-0.179v0.629h0.451    c0.9,0,2.074,0.178,2.074,2.348v14.424c0,1.17-0.992,1.713-2.074,1.713h-0.451v0.635c1.352,0,2.703-0.185,4.057-0.185    c1.533,0,3.158,0.185,4.781,0.185v-0.635h-0.453c-1.26,0-2.434-0.179-2.434-2.434v-6.224H211.453L211.453,331.656z     M224.711,341.126c-0.992,0-1.895-0.092-2.795-0.092c-0.902,0-1.801,0.092-2.797,0.092c-2.162-2.883-4.055-5.951-5.859-9.198    h-1.713v5.952c0,2.162,0.902,2.162,2.162,2.162h0.721v0.093v0.991h-0.178c-1.625,0-3.248-0.092-4.871-0.092    c-1.354,0-2.705,0.092-4.146,0.092h-0.09v-0.092v-0.992h0.09h0.541c0.992,0,1.893-0.449,1.893-1.441v-14.518    c-0.09-1.983-0.992-1.983-1.893-1.983h-0.631v-0.179v-0.906h0.09c0.902,0,2.705,0.094,4.418,0.094s3.064-0.094,4.6-0.094    c3.607,0,6.943,0.992,6.943,5.145c0,2.521-1.715,4.147-3.969,5.047l4.779,7.216c0.811,1.171,1.354,1.442,2.705,1.62h0.09v0.093    v0.991H224.711L224.711,341.126z" style="fill-rule:evenodd;clip-rule:evenodd;fill:#FFFFFF;"/><path d="M244.098,335.446l0.09-0.094v-10.727    c0-2.348-1.713-2.705-2.523-2.705h-0.631v-0.813c1.352,0,2.705,0.092,3.967,0.092c1.172,0,2.346-0.092,3.516-0.092v0.813h-0.359    c-1.264,0-2.523,0.271-2.523,3.697v12.982c0,0.992,0,1.984,0.09,2.884h-1.082l-14.699-16.409v11.72c0,2.526,0.543,3.34,2.705,3.34    h0.539v0.899c-1.26,0-2.523-0.086-3.697-0.086c-1.352,0-2.611,0.086-3.875,0.086v-0.899h0.361c1.982,0,2.615-1.264,2.615-3.604    v-11.996c0-1.621-1.352-2.527-2.615-2.527h-0.361v-0.898c1.082,0,2.162,0.092,3.248,0.092c0.809,0,1.713-0.092,2.523-0.092    L244.098,335.446z" style="fill-rule:evenodd;clip-rule:evenodd;fill:#FFFFFF;"/><path d="M244.01,335.353L244.01,335.353L244.01,335.353    L244.01,335.353z M244.098,335.446l0.09-0.094L244.098,335.446z M244.641,341.306h0.992c-0.182-0.813-0.182-1.806-0.182-2.705    v-12.982c0-3.426,1.441-3.789,2.705-3.789h0.271V321.2c-1.172,0-2.256,0.179-3.428,0.179c-1.262,0-2.525-0.179-3.879-0.179v0.629    h0.543c0.902,0,2.615,0.363,2.615,2.797l-0.092,10.82l0,0l-0.09,0.086L231.385,321.2c-0.811,0-1.715,0.179-2.523,0.179    c-1.086,0-2.166-0.179-3.158-0.179v0.629h0.271c1.352,0,2.705,0.991,2.705,2.705v11.996c0,2.341-0.633,3.783-2.705,3.783h-0.271    v0.542c1.262,0,2.523-0.092,3.697-0.092c1.262,0,2.438,0.092,3.607,0.092v-0.542h-0.361c-2.254,0-2.797-0.992-2.797-3.519v-12.083    L244.641,341.306z M245.723,341.577h-1.174l-14.428-16.144v11.361c0,2.526,0.363,3.247,2.525,3.247h0.633v0.093v0.991h-0.182    c-1.172,0-2.436-0.092-3.609-0.092c-1.352,0-2.611,0.092-3.875,0.092h-0.182v-0.092v-0.992h0.182h0.361    c1.891,0,2.434-1.263,2.434-3.512v-11.996c0-1.535-1.26-2.435-2.434-2.435h-0.543v-0.093v-0.992h0.182    c1.082,0,2.162,0.094,3.248,0.094c0.809,0,1.623-0.094,2.611-0.094l12.537,14.16v-10.549c0-2.256-1.535-2.526-2.346-2.526h-0.721    v-0.179v-0.906h0.09c1.352,0,2.705,0.094,3.967,0.094c1.172,0,2.346-0.094,3.516-0.094h0.182v0.094v0.991h-0.182h-0.359    c-1.172,0-2.434,0.093-2.434,3.519v12.982c0,0.992,0,1.984,0.178,2.798v0.179H245.723L245.723,341.577z" style="fill-rule:evenodd;clip-rule:evenodd;fill:#FFFFFF;"/><path d="M257.266,324.263L257.266,324.263l-2.707,8.114h5.32    L257.266,324.263z M253.115,336.98c-0.27,0.899-0.631,1.712-0.631,2.163c0,0.898,1.264,0.991,2.166,0.991h0.357v0.899    c-1.17-0.086-2.342-0.086-3.516-0.086c-0.992,0-2.072,0-3.064,0.086v-0.899h0.182c1.08,0,2.072-0.635,2.434-1.806l4.6-13.074    c0.359-1.078,0.898-2.526,1.082-3.605c0.902-0.271,2.072-0.813,2.615-1.17c0.09-0.093,0.09-0.093,0.178-0.093    c0.09,0,0.182,0,0.182,0.093c0.09,0.271,0.18,0.449,0.268,0.721l5.232,14.967c0.361,0.992,0.721,1.984,1.082,2.883    c0.359,0.814,0.902,1.085,1.895,1.085h0.178v0.899c-1.262-0.086-2.611-0.086-3.965-0.086c-1.352,0-2.797,0-4.238,0.086v-0.899    h0.268c0.635,0,1.805-0.093,1.805-0.813c0-0.357-0.271-1.078-0.631-2.07l-1.082-3.246h-6.492L253.115,336.98z" style="fill-rule:evenodd;clip-rule:evenodd;fill:#FFFFFF;"/><path d="M257.174,324.354h0.092H257.174z M254.74,332.291h5.049    l-2.523-7.665L254.74,332.291z M254.379,332.47l2.795-8.293h0.092l0,0v0.086l0,0l0,0v-0.086h0.09l2.705,8.293H254.379z     M260.238,340.855c1.441,0,2.799-0.092,4.15-0.092c1.354,0,2.613,0.092,3.877,0.092v-0.542h-0.09    c-0.992,0-1.625-0.357-1.984-1.264c-0.359-0.807-0.721-1.891-1.082-2.883l-5.23-14.967c-0.09-0.186-0.18-0.45-0.271-0.635    c0-0.086,0-0.086,0-0.086h-0.09c-0.088,0-0.088,0.086-0.178,0.086c-0.543,0.363-1.713,0.905-2.527,1.084    c-0.182,1.079-0.721,2.527-1.08,3.605l-4.512,13.074c-0.449,1.264-1.441,1.984-2.611,1.984h-0.094v0.542    c0.992,0,1.984-0.092,2.977-0.092c1.082,0,2.256,0.092,3.336,0.092v-0.542h-0.178c-0.902,0-2.256-0.179-2.256-1.17    c0-0.543,0.361-1.264,0.633-2.256l0.088,0.093l-0.088-0.093l0.902-3.063h6.672l1.172,3.426c0.268,0.9,0.541,1.62,0.541,2.07    c0,0.906-1.262,0.992-1.896,0.992h-0.18V340.855L260.238,340.855z M268.354,341.126c-1.262,0-2.611-0.092-3.965-0.092    c-1.352,0-2.797,0.092-4.238,0.092h-0.184v-0.092v-0.992h0.184h0.268c0.723,0,1.623-0.178,1.623-0.721    c0.092-0.271-0.178-1.078-0.539-1.984l-1.084-3.246h-6.311l-0.813,2.89c-0.361,0.991-0.629,1.712-0.629,2.163    c0,0.721,1.082,0.898,1.984,0.898h0.449v0.093v0.991h-0.182c-1.08,0-2.252-0.092-3.426-0.092c-0.992,0-1.984,0.092-3.064,0.092    h-0.094v-0.092v-0.992h0.094h0.182c1.08,0,1.982-0.628,2.344-1.799l4.598-13.075c0.359-1.085,0.902-2.439,1.08-3.61    c0.902-0.271,2.074-0.9,2.615-1.264c0.094,0,0.184,0,0.271,0c0.09,0,0.271,0,0.361,0.186c0.088,0.178,0.182,0.449,0.271,0.721    l5.229,14.875c0.363,0.991,0.635,2.076,0.992,2.889c0.359,0.807,0.902,1.078,1.805,1.078h0.271v0.186v0.898H268.354z" style="fill-rule:evenodd;clip-rule:evenodd;fill:#FFFFFF;"/><path d="M269.617,322.55c-2.162,0-2.252,0.449-2.705,2.618h-0.811    c0.09-0.813,0.27-1.626,0.361-2.439c0.088-0.808,0.088-1.62,0.088-2.435h0.723c0.271,0.814,0.992,0.814,1.715,0.814h14.785    c0.725,0,1.441,0,1.535-0.9l0.629,0.086c-0.088,0.814-0.18,1.535-0.271,2.348c-0.086,0.808-0.086,1.535-0.086,2.342l-0.814,0.271    c-0.09-0.992-0.268-2.705-2.162-2.705h-4.689v15.15c0,2.256,0.992,2.435,2.344,2.435h0.633v0.899    c-1.174,0-3.154-0.086-4.689-0.086c-1.713,0-3.697,0.086-4.871,0.086v-0.899h0.543c1.623,0,2.434-0.093,2.434-2.348V322.55    H269.617L269.617,322.55z" style="fill-rule:evenodd;clip-rule:evenodd;fill:#FFFFFF;"/><path d="M280.891,341.126c-1.174,0-3.154-0.092-4.689-0.092    c-1.713,0-3.697,0.092-4.871,0.092h-0.09v-0.092v-0.992h0.09h0.543c1.623,0,2.254-0.086,2.254-2.255v-15.146h-4.51v-0.092v-0.18    h4.781v15.417c0,2.255-0.902,2.526-2.525,2.526h-0.361v0.542c1.082,0,3.066-0.092,4.689-0.092c1.535,0,3.426,0.092,4.51,0.092    v-0.542h-0.363c-1.441,0-2.523-0.357-2.523-2.613v-15.33h4.779c1.982,0,2.162,1.621,2.256,2.705l0.627-0.178    c0-0.721,0-1.534,0-2.256c0.094-0.721,0.271-1.441,0.363-2.162l-0.455-0.093c-0.18,0.813-0.896,0.813-1.621,0.813h-14.785h-0.092    c-0.721,0-1.441,0-1.713-0.813h-0.453c0,0.813-0.09,1.534-0.18,2.342c-0.088,0.813-0.18,1.534-0.359,2.255h0.633    c0.359-1.984,0.631-2.613,2.793-2.613v0.18v0.092c-2.162,0.087-2.072,0.357-2.525,2.526v0.087h-0.18h-0.992l0.094-0.18    c0.088-0.813,0.178-1.533,0.268-2.434c0.182-0.721,0.182-1.533,0.182-2.348v-0.178h0.178h0.725l0.09,0.092    c0.178,0.721,0.721,0.721,1.441,0.721l0.092,0.086h14.785c0.725-0.086,1.35-0.086,1.35-0.807v-0.092h0.186l0.813,0.092v0.179    c-0.184,0.722-0.271,1.534-0.363,2.255c-0.092,0.808-0.092,1.535-0.092,2.342v0.092l0,0l-1.08,0.358v-0.179    c-0.088-1.078-0.18-2.613-1.982-2.613h-4.508V337.7c0,2.164,0.811,2.342,2.252,2.342h0.633v0.093v0.991H280.891L280.891,341.126z" style="fill-rule:evenodd;clip-rule:evenodd;fill:#FFFFFF;"/><path d="M287.021,340.135h0.357c1.084,0,2.168-0.093,2.168-1.626    v-14.875c0-1.534-1.084-1.713-2.168-1.713h-0.357v-0.813c1.078,0,2.797,0.092,4.238,0.092c1.443,0,3.063-0.092,4.418-0.092v0.813    h-0.363c-1.078,0-2.162,0.179-2.162,1.713v14.875c0,1.533,1.084,1.626,2.162,1.626h0.363v0.899c-1.355,0-3.068-0.086-4.51-0.086    c-1.35,0-3.068,0.086-4.146,0.086V340.135z" style="fill-rule:evenodd;clip-rule:evenodd;fill:#FFFFFF;"/><path d="M295.586,340.855v-0.542h-0.271    c-0.992,0-2.256-0.179-2.256-1.805v-14.875c0-1.627,1.264-1.805,2.256-1.805h0.271V321.2c-1.35,0-2.977,0.179-4.326,0.179    c-1.355,0-2.975-0.179-4.152-0.179v0.629h0.271c0.992,0,2.254,0.178,2.254,1.805v14.875c0,1.626-1.262,1.805-2.254,1.805h-0.271    v0.542c1.084,0,2.711-0.092,4.061-0.092C292.609,340.764,294.236,340.855,295.586,340.855 M295.678,341.126    c-1.355,0-3.068-0.092-4.51-0.092c-1.35,0-3.068,0.092-4.146,0.092h-0.18v-0.092v-0.899v-0.093h0.18h0.357    c1.084,0,1.984-0.086,1.984-1.533v-14.967c0-1.35-0.9-1.442-1.984-1.442h-0.537v-0.179v-0.906h0.18    c1.078,0,2.797,0.094,4.238,0.094c1.35,0,3.063-0.094,4.418-0.094h0.18v0.094v0.991h-0.18h-0.363    c-1.078,0-1.984,0.093-1.984,1.534v14.875c0,1.447,0.906,1.533,1.984,1.533h0.543v0.093v0.991H295.678L295.678,341.126z" style="fill-rule:evenodd;clip-rule:evenodd;fill:#FFFFFF;"/><path d="M307.49,340.228c5.588,0,6.488-4.875,6.488-9.107    c0-4.152-2.164-9.199-6.938-9.199c-4.961,0-6.496,4.504-6.496,8.293C300.545,335.353,302.895,340.228,307.49,340.228     M307.127,320.657c6.045,0,10.912,3.79,10.912,9.828c0,6.581-4.689,10.999-10.82,10.999c-6.039,0-10.641-4.147-10.641-10.278    C296.578,325.255,301.18,320.657,307.127,320.657L307.127,320.657z" style="fill-rule:evenodd;clip-rule:evenodd;fill:#FFFFFF;"/><path d="M300.453,330.214c0-3.875,1.449-8.385,6.588-8.385    c4.867,0,7.121,5.139,7.121,9.291c0,4.232-0.99,9.193-6.672,9.193v-0.086v-0.186c5.502,0,6.402-4.689,6.402-8.922    c0-4.152-2.256-9.021-6.852-9.113c-4.875,0.093-6.316,4.418-6.316,8.207c0,5.053,2.256,9.828,6.766,9.828v0.186v0.086    C302.801,340.313,300.453,335.353,300.453,330.214 M296.398,331.206c0.088-6.038,4.689-10.641,10.729-10.641v0.092v0.179    c-5.859,0-10.457,4.511-10.457,10.37c0,6.045,4.598,10.1,10.549,10.1c6.045,0,10.643-4.325,10.734-10.82    c0-5.951-4.781-9.649-10.826-9.649v-0.179v-0.092c6.137,0,11.004,3.789,11.004,9.92c0,6.674-4.781,11.092-10.912,11.092    S296.486,337.43,296.398,331.206L296.398,331.206z" style="fill-rule:evenodd;clip-rule:evenodd;fill:#FFFFFF;"/><path d="M337.244,335.446l0.094-0.094v-10.727    c0-2.348-1.627-2.705-2.527-2.705h-0.629v-0.813c1.35,0,2.705,0.092,4.055,0.092c1.172,0,2.348-0.092,3.52-0.092v0.813h-0.451    c-1.262,0-2.525,0.271-2.525,3.697v12.982c0,0.992,0,1.984,0.178,2.884h-1.078l-14.701-16.409v11.72    c0,2.526,0.449,3.34,2.619,3.34h0.541v0.899c-1.262,0-2.525-0.086-3.703-0.086c-1.256,0-2.611,0.086-3.875,0.086v-0.899h0.363    c1.984,0,2.613-1.264,2.613-3.604v-11.996c0-1.621-1.35-2.527-2.613-2.527h-0.363v-0.898c1.084,0,2.162,0.092,3.248,0.092    c0.906,0,1.713-0.092,2.525-0.092L337.244,335.446z" style="fill-rule:evenodd;clip-rule:evenodd;fill:#FFFFFF;"/><path d="M337.158,335.353L337.158,335.353L337.158,335.353    L337.158,335.353z M337.244,335.446l0.094-0.094L337.244,335.446z M337.787,341.306h0.992c-0.18-0.813-0.18-1.806-0.18-2.705    v-12.982c0-3.426,1.443-3.789,2.705-3.789h0.271V321.2c-1.084,0-2.256,0.179-3.426,0.179c-1.264,0-2.525-0.179-3.789-0.179v0.629    h0.449c0.9,0,2.619,0.363,2.619,2.797v10.82h-0.092l-0.094,0.086L324.533,321.2c-0.813,0-1.619,0.179-2.525,0.179    c-1.086,0-2.076-0.179-3.156-0.179v0.629h0.271c1.35,0,2.705,0.991,2.705,2.705v11.996c0,2.249-0.635,3.783-2.705,3.783h-0.271    v0.542c1.264,0,2.527-0.092,3.783-0.092c1.178,0,2.348,0.092,3.52,0.092v-0.542h-0.357c-2.256,0-2.797-0.992-2.797-3.519v-12.083    L337.787,341.306z M338.871,341.577h-1.176l-14.426-16.144v11.361c0,2.526,0.357,3.247,2.527,3.247h0.629v0.093v0.991h-0.088    c-1.262,0-2.525-0.092-3.703-0.092c-1.256,0-2.611,0.092-3.875,0.092h-0.178v-0.092v-0.992h0.178h0.363    c1.893,0,2.434-1.263,2.434-3.512v-11.996c0-1.535-1.262-2.435-2.434-2.435h-0.541v-0.179v-0.906h0.178    c1.084,0,2.162,0.094,3.248,0.094c0.813,0,1.713-0.094,2.617-0.094l12.533,14.16v-10.549c0-2.256-1.533-2.526-2.348-2.526h-0.721    v-0.179v-0.906h0.092c1.35,0,2.705,0.094,3.969,0.094c1.17,0,2.342-0.094,3.605-0.094h0.092v0.094v0.991h-0.092h-0.451    c-1.17,0-2.434,0.093-2.434,3.519v12.982c0,0.992,0,1.984,0.18,2.798v0.179H338.871z" style="fill-rule:evenodd;clip-rule:evenodd;fill:#FFFFFF;"/><path d="M350.504,324.263h-0.092l-2.619,8.114h5.324L350.504,324.263z     M346.266,336.98c-0.271,0.899-0.635,1.712-0.635,2.163c0,0.898,1.264,0.991,2.162,0.991h0.363v0.899    c-1.17-0.086-2.342-0.086-3.518-0.086c-0.992,0-1.984,0-3.063,0.086v-0.899h0.18c1.084,0,2.076-0.635,2.525-1.806l4.51-13.074    c0.357-1.078,0.9-2.526,1.078-3.605c0.9-0.271,2.078-0.813,2.619-1.17c0.088-0.093,0.088-0.093,0.18-0.093    c0.086,0,0.178,0,0.178,0.093c0.092,0.271,0.18,0.449,0.271,0.721l5.324,14.967c0.264,0.992,0.629,1.984,0.984,2.883    c0.365,0.814,0.994,1.085,1.898,1.085h0.18v0.899c-1.264-0.086-2.527-0.086-3.969-0.086c-1.355,0-2.797,0-4.238,0.086v-0.899h0.27    c0.721,0,1.807-0.093,1.807-0.813c0-0.357-0.271-1.078-0.543-2.07l-1.17-3.246h-6.402L346.266,336.98z" style="fill-rule:evenodd;clip-rule:evenodd;fill:#FFFFFF;"/><path d="M350.32,324.354h0.092H350.32z M347.887,332.291h5.051    l-2.525-7.665L347.887,332.291z M347.615,332.47l2.705-8.293h0.092h0.092v0.086h-0.092h0.092v-0.086h0.088l2.705,8.293H347.615z     M353.389,340.855c1.441,0,2.791-0.092,4.146-0.092s2.619,0.092,3.875,0.092v-0.542h-0.086c-0.992,0-1.627-0.357-1.984-1.264    c-0.363-0.807-0.721-1.891-1.084-2.883l-5.23-14.967c-0.088-0.186-0.18-0.45-0.271-0.635c0-0.086,0-0.086,0-0.086h-0.086    c0,0-0.092,0.086-0.18,0.086c-0.541,0.363-1.627,0.905-2.525,1.084c-0.18,1.079-0.721,2.527-1.084,3.605l-4.512,13.074    c-0.449,1.264-1.441,1.984-2.611,1.984h-0.094v0.542c0.992,0,1.984-0.092,2.977-0.092c1.176,0,2.256,0.092,3.34,0.092v-0.542    h-0.186c-0.898,0-2.248-0.179-2.248-1.17c0-0.543,0.357-1.264,0.629-2.256l0.092,0.093l-0.092-0.093l0.898-3.063h6.674    l1.176,3.426c0.271,0.9,0.543,1.62,0.543,2.07c0,0.906-1.264,0.992-1.898,0.992h-0.178V340.855L353.389,340.855z M361.504,341.126    c-1.264,0-2.613-0.092-3.969-0.092s-2.797,0.092-4.238,0.092h-0.088v-0.092v-0.992h0.088h0.27c0.721,0,1.713-0.178,1.713-0.721    c0-0.271-0.271-1.078-0.627-1.984l-1.086-3.246h-6.223l-0.9,2.89c-0.363,0.991-0.629,1.712-0.629,2.163    c0,0.721,1.08,0.898,1.979,0.898h0.457v0.093v0.991h-0.094c-1.17,0-2.342-0.092-3.518-0.092c-0.992,0-1.984,0.092-3.063,0.092    h-0.092v-0.092v-0.992h0.092h0.18c1.084,0,1.982-0.628,2.34-1.799l4.604-13.075c0.357-1.085,0.9-2.439,1.084-3.61    c0.9-0.271,2.07-0.9,2.613-1.264c0.092,0,0.18,0,0.271,0c0.086,0,0.27,0,0.357,0.186c0.092,0.178,0.184,0.449,0.271,0.721    l5.23,14.875c0.363,0.991,0.629,2.076,1.084,2.889c0.271,0.807,0.809,1.078,1.713,1.078h0.271v0.093v0.991H361.504z" style="fill-rule:evenodd;clip-rule:evenodd;fill:#FFFFFF;"/><path d="M368.719,338.243c0,1.171,0.807,1.441,1.713,1.621    c1.17,0.092,2.434,0.092,3.783-0.094c1.176-0.178,2.17-0.807,2.711-1.527c0.449-0.635,0.721-1.448,0.9-2.076h0.813    c-0.363,1.62-0.727,3.247-1.084,4.867c-2.527,0-5.053-0.086-7.486-0.086c-2.52,0-5.047,0.086-7.572,0.086v-0.899h0.357    c1.084,0,2.168-0.093,2.168-1.892v-14.609c0-1.534-1.084-1.713-2.168-1.713h-0.357v-0.813c1.533,0,2.977,0.092,4.51,0.092    c1.441,0,2.883-0.092,4.326-0.092v0.813h-0.721c-1.086,0-1.893,0.086-1.893,1.528V338.243L368.719,338.243z" style="fill-rule:evenodd;clip-rule:evenodd;fill:#FFFFFF;"/><path d="M377.461,340.855c0.365-1.534,0.723-2.976,0.994-4.597h-0.543    c-0.18,0.629-0.451,1.441-0.9,2.07c-0.541,0.721-1.621,1.441-2.797,1.535c-0.807,0.092-1.527,0.178-2.248,0.178    c-0.543,0-1.086-0.086-1.535-0.086c-0.992-0.092-1.893-0.542-1.893-1.713v-14.701c0-1.621,1.08-1.713,2.072-1.713h0.627V321.2    c-1.441,0-2.791,0.179-4.232,0.179s-2.891-0.179-4.418-0.179v0.629h0.266c1.084,0,2.346,0.178,2.346,1.805v14.609    c0,1.892-1.262,2.07-2.346,2.07h-0.266v0.542c2.52,0,4.961-0.092,7.48-0.092C372.502,340.764,375.027,340.855,377.461,340.855     M377.555,341.126c-2.527,0-4.961-0.092-7.486-0.092c-2.52,0-5.047,0.092-7.572,0.092h-0.094v-0.092v-0.992h0.094h0.357    c1.084,0,2.076-0.086,2.076-1.799v-14.609c0-1.441-0.992-1.534-2.076-1.534h-0.451v-0.179v-0.906h0.094    c1.533,0,2.977,0.094,4.51,0.094c1.441,0,2.883-0.094,4.326-0.094h0.178v0.094v0.991h-0.178h-0.721c-1.086,0-1.807,0-1.807,1.442    v14.701c0,1.078,0.721,1.35,1.627,1.441c0.449,0.086,0.992,0.086,1.535,0.086c0.721,0,1.441,0,2.162-0.086    c1.17-0.185,2.162-0.813,2.705-1.533c0.449-0.629,0.627-1.356,0.813-1.984l0.086-0.092h0.094h0.992l-0.094,0.092    c-0.27,1.713-0.721,3.247-1.078,4.867v0.092H377.555L377.555,341.126z" style="fill-rule:evenodd;clip-rule:evenodd;fill:#FFFFFF;"/></g></g><g id="Layer_1"/></svg>