<?xml version="1.0" ?><!DOCTYPE svg  PUBLIC '-//W3C//DTD SVG 1.1//EN'  'http://www.w3.org/Graphics/SVG/1.1/DTD/svg11.dtd'><svg enable-background="new 0 0 87 56" height="56px" id="Layer_1" version="1.1" viewBox="0 0 87 56" width="87px" xml:space="preserve" xmlns="http://www.w3.org/2000/svg" xmlns:xlink="http://www.w3.org/1999/xlink"><g><path d="M84.167,1.115H2.833C1.774,1.413,1,2.302,1,3.365v49.271c0,1.063,0.774,1.951,1.833,2.249h81.334   C85.227,54.587,86,53.698,86,52.636V3.365C86,2.302,85.227,1.413,84.167,1.115z" fill="#003473"/><g><g><g><path d="M48.588,17.384l-0.169-0.298l-1.178-0.229l0.591-0.806l-0.109-0.195c-1.164-1.895-2.584-3.615-4.223-5.1      c-4.129-3.742-9.607-6.022-15.618-6.022C15.031,4.733,4.615,15.15,4.615,28c0,12.85,10.416,23.268,23.267,23.268      c6.011,0,11.489-2.281,15.618-6.021c4.697-4.258,7.646-10.406,7.646-17.245C51.146,24.175,50.225,20.566,48.588,17.384z" fill="#ED1C2E"/><g><path d="M59.118,4.733c-6.013,0-11.489,2.28-15.618,6.022c1.639,1.484,3.059,3.205,4.223,5.1l0.109,0.195       l-0.591,0.806l1.178,0.229l0.169,0.298c1.637,3.183,2.561,6.791,2.561,10.616c0,6.839-2.95,12.987-7.647,17.245       c4.129,3.74,9.606,6.021,15.618,6.021c12.85,0,23.267-10.418,23.267-23.268C82.386,15.148,71.968,4.733,59.118,4.733z" fill="#FCB131"/></g></g><g><g><g><g><path d="M18.677,25.653h2.869l-2.239,11.796h-2.868L18.677,25.653z" fill="#003473"/><path d="M10.067,25.653h7.447l-0.428,2.231h-4.583l-0.459,2.435h4.416l-0.405,2.229h-4.433l-0.505,2.671         h4.581l-0.423,2.229H7.829L10.067,25.653z" fill="#003473"/><path d="M28.442,37.288c-0.932,0.267-1.82,0.394-2.773,0.394c-3.039-0.002-4.623-1.486-4.623-4.332         c0-3.317,2.016-5.762,4.751-5.762c2.238,0,3.708,1.369,3.708,3.514c0,0.713-0.098,1.407-0.334,2.388h-5.445         c-0.021,0.149-0.026,0.215-0.026,0.305c0,1.121,0.806,1.692,2.384,1.692c0.972,0,1.849-0.189,2.824-0.612L28.442,37.288z          M27.006,31.529c0.016-0.201,0.023-0.359,0.023-0.485c0-0.785-0.477-1.247-1.286-1.247c-0.864,0-1.482,0.619-1.733,1.732         H27.006z" fill="#003473"/><path d="M55.954,31.863c0,2.187-0.838,3.484-2.163,3.484c-0.963,0.018-1.548-0.854-1.548-2.149         c0-1.54,0.853-3.28,2.228-3.28C55.575,29.918,55.954,30.861,55.954,31.863z M58.891,31.9c0-2.428-1.484-4.317-4.277-4.317         c-3.223,0-5.307,2.298-5.307,5.688c0,2.428,1.232,4.41,4.278,4.41C56.664,37.682,58.891,35.92,58.891,31.9z" fill="#003473"/><path d="M60.042,30.332c0.149-0.833,0.283-1.646,0.371-2.516h2.663l-0.237,1.573h0.032         c0.83-1.073,1.688-1.793,3.186-1.793c1.654,0,2.537,1.467,2.521,3.354c-0.007,0.646-0.082,1.109-0.261,2.006l-0.846,4.494         h-2.869l0.848-4.512c0.093-0.498,0.187-0.961,0.189-1.459c0.006-0.574-0.303-1.146-1.091-1.11         c-1.198,0-1.92,1.221-2.138,2.646l-0.85,4.437h-2.867L60.042,30.332z" fill="#003473"/><path d="M70.361,27.816h2.869l-1.821,9.633h-2.867L70.361,27.816z" fill="#003473"/><path d="M36.267,37.307c-0.568,0.223-1.326,0.37-2.431,0.37c-2.399,0-3.884-1.981-3.884-4.409         c0-3.168,2.146-5.688,5.305-5.688c0.694,0,1.752,0.241,2.589,0.648l-0.513,2.357c-0.575-0.354-1.303-0.56-1.935-0.56         c-1.468,0-2.511,1.11-2.511,3.111c0,1.148,0.758,2.094,1.958,2.094c0.711,0,1.216-0.129,1.832-0.426L36.267,37.307z" fill="#003473"/><path d="M79.414,37.307c-0.566,0.223-1.325,0.37-2.43,0.37c-2.4,0-3.885-1.981-3.885-4.409         c0-3.168,2.146-5.688,5.305-5.688c0.693,0,1.753,0.241,2.589,0.648l-0.513,2.357c-0.576-0.354-1.304-0.56-1.936-0.56         c-1.467,0-2.51,1.11-2.51,3.111c0,1.148,0.758,2.094,1.958,2.094c0.711,0,1.216-0.129,1.832-0.426L79.414,37.307z" fill="#003473"/><path d="M44.453,27.816c-0.364,2.979-1.011,5.999-1.516,8.984l-0.123,0.648h2.902         c1.046-5.763,1.396-7.405,3.589-6.827l1.055-2.729c-1.528-0.561-2.514,0.24-3.402,1.379c0.08-0.513,0.23-1.007,0.193-1.457         L44.453,27.816L44.453,27.816z" fill="#003473"/><path d="M42.31,35.302c-1.191,0.173-1.737-0.161-1.737-0.809c0-0.462,0.11-0.943,0.236-1.665l0.488-2.682         h1.502l0.439-2.331h-1.483l0.428-2.303h-2.868l-1.379,7.333c-0.188,1.019-0.252,1.5-0.252,1.979         c0,2.016,1.203,2.848,2.652,2.848c0.501,0,1.028-0.063,1.557-0.153L42.31,35.302z" fill="#003473"/></g><g><g><path d="M28.442,20.154c-0.198-0.022-0.286-0.029-0.423-0.029c-1.073,0-1.616,0.367-1.616,1.096          c0,0.447,0.265,0.732,0.679,0.732C27.853,21.953,28.409,21.219,28.442,20.154z M29.819,23.36c-0.252,0-1.568,0-1.568,0          l0.036-0.745c-0.479,0.588-1.118,0.869-1.985,0.869c-1.025,0-1.73-0.801-1.73-1.965c0-1.752,1.225-2.773,3.325-2.773          c0.216,0,0.49,0.019,0.772,0.055c0.058-0.237,0.073-0.339,0.073-0.467c0-0.477-0.33-0.654-1.214-0.654          c-0.927-0.01-1.69,0.221-2.005,0.324c0.02-0.12,0.263-1.619,0.263-1.619c0.944-0.277,1.565-0.381,2.267-0.381          c1.626,0,2.488,0.73,2.485,2.109c0.004,0.371-0.059,0.826-0.153,1.427C30.221,20.582,29.868,22.816,29.819,23.36z" fill="#003473"/><polygon fill="#003473" points="23.779,23.36 21.885,23.36 22.971,16.561 20.548,23.36 19.258,23.36 19.099,16.598           17.957,23.36 16.185,23.36 17.666,14.513 20.389,14.513 20.554,19.465 22.216,14.513 25.244,14.513         "/><path d="M58.273,20.154c-0.197-0.022-0.284-0.029-0.42-0.029c-1.074,0-1.617,0.367-1.617,1.096          c0,0.447,0.265,0.732,0.679,0.732C57.688,21.953,58.242,21.219,58.273,20.154z M59.652,23.36c-0.252,0-1.568,0-1.568,0          l0.036-0.745c-0.479,0.588-1.117,0.869-1.984,0.869c-1.026,0-1.729-0.801-1.729-1.965c0-1.752,1.224-2.773,3.324-2.773          c0.215,0,0.488,0.019,0.771,0.055c0.059-0.237,0.073-0.339,0.073-0.467c0-0.477-0.329-0.654-1.214-0.654          c-0.926-0.01-1.69,0.221-2.006,0.324c0.021-0.12,0.266-1.619,0.266-1.619c0.941-0.277,1.564-0.381,2.265-0.381          c1.628,0,2.487,0.73,2.486,2.109c0.003,0.371-0.06,0.826-0.153,1.427C60.055,20.582,59.701,22.816,59.652,23.36z" fill="#003473"/><path d="M38.236,23.251c-0.519,0.163-0.923,0.233-1.361,0.233c-0.968,0-1.495-0.556-1.495-1.58          c-0.014-0.318,0.138-1.154,0.259-1.918c0.109-0.672,0.821-4.91,0.821-4.91h1.883l-0.22,1.088h1.136l-0.256,1.73h-1.141          c-0.219,1.368-0.531,3.072-0.534,3.299c0,0.371,0.198,0.533,0.648,0.533c0.216,0,0.383-0.021,0.511-0.068L38.236,23.251z" fill="#003473"/><path d="M44.008,23.193c-0.647,0.197-1.271,0.293-1.932,0.291c-2.107-0.002-3.206-1.102-3.206-3.209          c0-2.46,1.397-4.271,3.295-4.271c1.552,0,2.543,1.014,2.543,2.604c0,0.529-0.067,1.043-0.231,1.77h-3.749          c-0.127,1.045,0.541,1.479,1.637,1.479c0.673,0,1.28-0.139,1.955-0.451L44.008,23.193z M42.949,18.928          c0.012-0.15,0.2-1.285-0.876-1.285c-0.6,0-1.028,0.457-1.202,1.285H42.949z" fill="#003473"/><path d="M30.956,18.439c0,0.91,0.441,1.537,1.441,2.01c0.767,0.359,0.886,0.467,0.886,0.793          c0,0.449-0.338,0.652-1.087,0.652c-0.565,0-1.091-0.089-1.697-0.285c0,0-0.248,1.587-0.26,1.663          c0.431,0.093,0.813,0.18,1.971,0.212c1.998,0,2.921-0.761,2.921-2.404c0-0.988-0.387-1.568-1.335-2.006          c-0.794-0.364-0.886-0.447-0.886-0.781c0-0.389,0.315-0.588,0.927-0.588c0.372,0,0.88,0.039,1.361,0.108l0.27-1.669          c-0.491-0.079-1.234-0.141-1.667-0.141C31.683,16.004,30.949,17.111,30.956,18.439z" fill="#003473"/><path d="M53.218,16.194c0.525,0,1.017,0.136,1.692,0.478l0.311-1.921c-0.279-0.108-1.255-0.748-2.082-0.748          c-1.267,0-2.34,0.63-3.093,1.666c-1.101-0.364-1.552,0.372-2.104,1.104l-0.491,0.115c0.036-0.24,0.069-0.481,0.06-0.725          h-1.74c-0.235,2.229-0.656,4.484-0.986,6.712l-0.085,0.484h1.895c0.315-2.055,0.488-3.37,0.595-4.261l0.713-0.395          c0.106-0.398,0.439-0.531,1.108-0.516c-0.087,0.47-0.135,0.963-0.135,1.476c0,2.354,1.272,3.819,3.312,3.819          c0.523,0,0.977-0.069,1.674-0.258l0.332-2.017c-0.629,0.308-1.143,0.454-1.608,0.454c-1.103,0-1.769-0.814-1.769-2.156          C50.813,17.559,51.805,16.194,53.218,16.194z" fill="#003473"/><path d="M69.251,14.513l-0.421,2.556c-0.518-0.682-1.072-1.174-1.809-1.174          c-0.955,0-1.824,0.725-2.395,1.791c-0.794-0.165-1.611-0.443-1.611-0.443v0.006c0.063-0.596,0.088-0.959,0.082-1.084h-1.738          c-0.236,2.229-0.659,4.484-0.987,6.712l-0.088,0.484h1.896c0.256-1.66,0.45-3.041,0.596-4.135          c0.646-0.585,0.972-1.095,1.625-1.062c-0.289,0.702-0.457,1.508-0.457,2.336c0,1.797,0.908,2.984,2.285,2.984          c0.693,0,1.227-0.238,1.746-0.794l-0.088,0.67h1.79l1.442-8.848L69.251,14.513L69.251,14.513z M66.882,21.699          c-0.644,0-0.97-0.479-0.97-1.42c0-1.413,0.609-2.416,1.469-2.416c0.651,0,1.005,0.494,1.005,1.408          C68.386,20.698,67.764,21.699,66.882,21.699z" fill="#003473"/></g><g><polygon fill="#FFFFFF" points="24.324,22.835 22.43,22.835 23.516,16.033 21.093,22.835 19.802,22.835 19.643,16.074           18.502,22.835 16.73,22.835 18.211,13.988 20.934,13.988 21.01,19.465 22.848,13.988 25.789,13.988         "/><path d="M28.987,19.631c-0.198-0.024-0.286-0.031-0.423-0.031c-1.073,0-1.616,0.369-1.616,1.096          c0,0.447,0.265,0.734,0.68,0.734C28.398,21.43,28.955,20.695,28.987,19.631z M30.365,22.835c-0.254,0-1.569,0-1.569,0          l0.036-0.744c-0.479,0.589-1.118,0.869-1.985,0.869c-1.026,0-1.729-0.802-1.729-1.966c0-1.752,1.224-2.773,3.325-2.773          c0.214,0,0.489,0.021,0.771,0.057c0.059-0.238,0.074-0.34,0.074-0.469c0-0.477-0.33-0.652-1.215-0.652          c-0.927-0.012-1.69,0.219-2.005,0.322c0.02-0.119,0.263-1.618,0.263-1.618c0.943-0.276,1.566-0.382,2.267-0.382          c1.626,0,2.487,0.73,2.486,2.111c0.003,0.369-0.059,0.826-0.153,1.425C30.766,20.057,30.413,22.292,30.365,22.835z" fill="#FFFFFF"/><path d="M55.766,14.227l-0.312,1.92c-0.675-0.34-1.165-0.478-1.69-0.478c-1.414,0-2.406,1.367-2.406,3.315          c0,1.343,0.666,2.154,1.769,2.154c0.467,0,0.981-0.145,1.608-0.454L54.4,22.701c-0.697,0.189-1.148,0.259-1.674,0.259          c-2.039,0-3.309-1.466-3.309-3.819c0-3.164,1.755-5.373,4.266-5.373C54.511,13.768,55.486,14.117,55.766,14.227z" fill="#FFFFFF"/><path d="M58.818,19.631c-0.196-0.024-0.284-0.031-0.42-0.031c-1.073,0-1.616,0.369-1.616,1.096          c0,0.447,0.265,0.734,0.679,0.734C58.23,21.43,58.788,20.695,58.818,19.631z M60.199,22.835c-0.254,0-1.57,0-1.57,0          l0.036-0.744c-0.479,0.589-1.117,0.869-1.985,0.869c-1.025,0-1.729-0.802-1.729-1.966c0-1.752,1.224-2.773,3.324-2.773          c0.216,0,0.49,0.021,0.771,0.057c0.06-0.238,0.075-0.34,0.075-0.469c0-0.477-0.33-0.652-1.215-0.652          c-0.926-0.012-1.689,0.219-2.006,0.322c0.021-0.119,0.265-1.618,0.265-1.618c0.942-0.276,1.565-0.382,2.267-0.382          c1.625,0,2.486,0.73,2.484,2.111c0.004,0.369-0.057,0.826-0.152,1.425C60.6,20.057,60.246,22.292,60.199,22.835z" fill="#FFFFFF"/><path d="M38.781,22.727c-0.518,0.162-0.923,0.233-1.36,0.233c-0.968,0-1.496-0.556-1.496-1.58          c-0.014-0.319,0.139-1.154,0.259-1.918c0.109-0.673,0.821-4.911,0.821-4.911h1.883l-0.221,1.09h0.967l-0.258,1.729h-0.969          c-0.219,1.369-0.531,3.074-0.534,3.299c0,0.372,0.198,0.533,0.648,0.533c0.216,0,0.382-0.021,0.511-0.067L38.781,22.727z" fill="#FFFFFF"/><path d="M44.555,22.67c-0.647,0.197-1.272,0.291-1.933,0.29c-2.109-0.001-3.206-1.103-3.206-3.21          c0-2.46,1.397-4.271,3.293-4.271c1.555,0,2.544,1.014,2.544,2.605c0,0.527-0.067,1.043-0.231,1.77h-3.749          c-0.126,1.044,0.541,1.479,1.636,1.479c0.674,0,1.28-0.139,1.959-0.453L44.555,22.67z M43.495,18.402          c0.011-0.15,0.199-1.284-0.877-1.284c-0.599,0-1.027,0.458-1.202,1.284H43.495z" fill="#FFFFFF"/><path d="M31.5,17.914c0,0.912,0.442,1.539,1.443,2.01c0.767,0.361,0.885,0.467,0.885,0.795          c0,0.447-0.338,0.65-1.087,0.65c-0.565,0-1.091-0.088-1.697-0.283c0,0-0.249,1.586-0.26,1.661          c0.43,0.094,0.813,0.18,1.97,0.213c1.999,0,2.922-0.761,2.922-2.405c0-0.988-0.386-1.568-1.335-2.004          c-0.794-0.365-0.885-0.445-0.885-0.782c0-0.39,0.314-0.589,0.927-0.589c0.371,0,0.88,0.041,1.36,0.108l0.27-1.669          c-0.49-0.076-1.233-0.141-1.667-0.141C32.228,15.479,31.493,16.586,31.5,17.914z" fill="#FFFFFF"/><path d="M70.223,22.835h-1.791l0.088-0.669c-0.521,0.555-1.052,0.794-1.746,0.794          c-1.377,0-2.287-1.186-2.287-2.985c0-2.394,1.412-4.41,3.082-4.41c0.733,0,1.291,0.299,1.809,0.98l0.42-2.557h1.869          L70.223,22.835z M67.428,21.173c0.883,0,1.502-0.999,1.502-2.425c0-0.914-0.354-1.41-1.003-1.41          c-0.86,0-1.47,1.002-1.47,2.418C66.457,20.697,66.783,21.173,67.428,21.173z" fill="#FFFFFF"/><path d="M61.902,15.641c-0.234,2.227-0.656,4.482-0.986,6.711l-0.085,0.483h1.894          c0.678-4.399,0.84-5.259,1.903-5.151c0.169-0.9,0.483-1.689,0.72-2.086c-0.793-0.166-1.236,0.282-1.816,1.134          c0.046-0.368,0.129-0.726,0.113-1.091H61.902z" fill="#FFFFFF"/><path d="M46.314,15.641c-0.237,2.227-0.658,4.482-0.988,6.711l-0.086,0.483h1.895          c0.678-4.399,0.842-5.259,1.902-5.151c0.169-0.9,0.484-1.689,0.719-2.086c-0.792-0.166-1.234,0.282-1.814,1.134          c0.047-0.368,0.129-0.726,0.113-1.091H46.314z" fill="#FFFFFF"/><g><path d="M71.053,22.271c0-0.312,0.254-0.563,0.563-0.563c0.313,0,0.563,0.251,0.563,0.563           c0,0.311-0.25,0.563-0.563,0.563C71.307,22.835,71.053,22.582,71.053,22.271z M71.615,22.7           c0.238,0,0.431-0.191,0.431-0.429c0-0.236-0.192-0.428-0.431-0.428c-0.235,0-0.428,0.191-0.428,0.428           C71.188,22.509,71.38,22.7,71.615,22.7z M71.54,22.519h-0.116v-0.495h0.21c0.046,0,0.089,0.002,0.127,0.025           c0.04,0.027,0.063,0.075,0.063,0.124c0,0.056-0.032,0.108-0.085,0.128l0.091,0.218H71.7l-0.074-0.196H71.54V22.519z            M71.54,22.238h0.063c0.023,0,0.051,0.002,0.07-0.01s0.029-0.035,0.029-0.057c0-0.02-0.012-0.04-0.027-0.051           c-0.021-0.012-0.053-0.009-0.074-0.009H71.54V22.238z" fill="#FFFFFF"/></g></g></g></g></g></g></g><g><polygon fill="#FCB131" points="79.029,41.973 78.727,41.973 78.727,41.807 79.516,41.807 79.516,41.973 79.211,41.973      79.211,42.796 79.029,42.796    "/><polygon fill="#FCB131" points="79.749,41.807 80.029,41.807 80.289,42.475 80.544,41.807 80.825,41.807 80.825,42.796      80.645,42.796 80.645,42.039 80.639,42.039 80.359,42.796 80.213,42.796 79.936,42.039 79.93,42.039 79.93,42.796 79.749,42.796         "/></g></g></g></svg>