<svg xmlns="http://www.w3.org/2000/svg" viewBox="0 0 217.6 27"> <style> .pw_grey{fill:#4A4E51;} .pw_gold{fill:#FCBF14;} </style> <path class="pw_grey" d="M47 21V.5h10.3c4.6 0 7.1 3.1 7.1 6.8 0 3.7-2.5 6.8-7.1 6.8h-5V21H47zM59 7.3c0-1.4-1-2.2-2.5-2.2h-4.3v4.4h4.3c1.5 0 2.5-.8 2.5-2.2zM74.2 21v-1.5c-.9 1.1-2.7 1.8-4.6 1.8-2.3 0-5.1-1.5-5.1-4.9 0-3.6 2.8-4.8 5.1-4.8 2 0 3.7.6 4.6 1.7v-1.8c0-1.3-1.1-2.1-3-2.1-1.5 0-3 .6-4.2 1.6l-1.7-3c1.9-1.6 4.5-2.3 6.7-2.3 3.6 0 6.9 1.3 6.9 5.9V21h-4.7zm0-3.9v-1.3c-.5-.7-1.6-1-2.6-1-1.3 0-2.4.6-2.4 1.7 0 1.2 1.1 1.7 2.4 1.7 1 0 2.1-.3 2.6-1.1zM81.2 22.5c.3.2.8.3 1.2.3 1.1 0 1.8-.2 2-.8l.3-.8-5.9-15h5l3.3 9.4 3.4-9.4h5l-6.7 17c-1.2 3.1-3.4 3.8-6.3 3.9-.4 0-1.5-.1-2-.2l.7-4.4zM115.1 21v-9c0-1.1-.6-2-2-2-1.3 0-2.2.8-2.7 1.4V21h-4.7v-9c0-1.1-.5-2-2-2-1.3 0-2.1.8-2.6 1.4V21h-4.7V6.1h4.7v1.8c.6-.9 2.5-2.2 4.9-2.2 2.1 0 3.6.9 4.2 2.6.9-1.3 2.8-2.6 5.1-2.6 2.7 0 4.5 1.4 4.5 4.5V21h-4.7zM121.3 13.5c0-4.3 3.3-7.8 7.9-7.8 4.4 0 7.6 3.2 7.6 8.3v1h-10.6c.3 1.4 1.6 2.6 3.7 2.6 1 0 2.9-.5 3.7-1.3l2 2.9c-1.5 1.3-3.9 2-6.2 2-4.5.1-8.1-2.9-8.1-7.7zm7.9-4.1c-2.1 0-2.9 1.5-3 2.5h6.1c-.1-1-.9-2.5-3.1-2.5zM148.3 21v-8.6c0-1.8-1-2.5-2.4-2.5s-2.3.8-2.9 1.4V21h-4.7V6.1h4.7v1.8c.9-1 2.6-2.2 5.1-2.2 3.4 0 4.9 2 4.9 4.7V21h-4.7zM156.3 17v-6.7h-2.5V6.1h2.5v-4h4.7v4.1h3v4.1h-3v5.4c0 .9.5 1.5 1.3 1.5.5 0 1-.2 1.2-.4l.9 3.6c-.6.6-1.8 1-3.5 1-2.9-.1-4.6-1.6-4.6-4.4zM179.8 21l-2.8-9.2-2.8 9.2h-5.1l-4.4-14.8h4.9l2.4 9.1 2.9-9.1h4.2l2.9 9.1 2.4-9.1h4.9L184.9 21h-5.1zM198.8 21v-1.5c-.9 1.1-2.7 1.8-4.6 1.8-2.3 0-5.1-1.5-5.1-4.9 0-3.6 2.8-4.8 5.1-4.8 2 0 3.7.6 4.6 1.7v-1.8c0-1.3-1.1-2.1-3-2.1-1.5 0-3 .6-4.2 1.6l-1.7-3c1.9-1.6 4.5-2.3 6.7-2.3 3.6 0 6.9 1.3 6.9 5.9V21h-4.7zm0-3.9v-1.3c-.5-.7-1.6-1-2.6-1-1.3 0-2.4.6-2.4 1.7 0 1.2 1.1 1.7 2.4 1.7 1 0 2.1-.3 2.6-1.1zM206 21V.5h4.7V21H206zM212.9 21V.5h4.7V21h-4.7z"></path> <g> <path class="pw_gold" d="M27.2 21l2.3-6.2H38l2.3 6.2H27.2zM13.7 21l2.3-6.2h8.5l2.3 6.2H13.7zM20.5 13.6l2.2-6.2h8.5l2.3 6.2zM6.8 13.6l2.3-6.2h8.5l2.2 6.2zM0 21l2.3-6.2h8.5l2.3 6.2H0z"></path> <g> <path class="pw_gold" d="M13.7 6.3L16 0h8.4l2.3 6.3h-13z"></path> </g> </g> </svg>