<?xml version="1.0" ?><!DOCTYPE svg  PUBLIC '-//W3C//DTD SVG 1.1//EN'  'http://www.w3.org/Graphics/SVG/1.1/DTD/svg11.dtd'><svg enable-background="new 0 0 87 56" height="56px" id="Layer_1" version="1.1" viewBox="0 0 87 56" width="87px" xml:space="preserve" xmlns="http://www.w3.org/2000/svg" xmlns:xlink="http://www.w3.org/1999/xlink"><g><path d="M86,52.636C86,53.941,84.84,55,83.407,55H3.593C2.161,55,1,53.941,1,52.636V3.365C1,2.059,2.161,1,3.593,1   h79.814C84.84,1,86,2.059,86,3.365V52.636z" fill="#F1F2F2"/><g><path d="M39.349,8.834H25.708l13.56,0.003C39.296,8.836,39.323,8.834,39.349,8.834z" fill="none"/><path d="M13.5,44.588v2.578h2.887C14.765,47.14,13.637,46.064,13.5,44.588z" fill="none"/><path d="M55.761,8.842L49.853,8.84l5.875,0.003C55.739,8.843,55.751,8.842,55.761,8.842z" fill="#DE4447"/><path d="M27.222,43.46l6.99-30.919c0.459-2.021,3.021-3.661,5.056-3.704l-13.56-0.002    c-2.046,0-4.671,1.658-5.139,3.706L13.58,43.46c-0.043,0.188-0.066,0.372-0.08,0.554v0.574c0.137,1.477,1.265,2.552,2.887,2.578    h13.641C28.015,47.134,26.76,45.484,27.222,43.46z" fill="#EC1C24"/><path d="M49.853,8.84L39.349,8.834c-0.026,0-0.053,0.001-0.081,0.003L49.853,8.84z" fill="#2A557C"/><path d="M43.721,43.46l6.987-30.919c0.46-2.007,2.989-3.635,5.019-3.698L49.853,8.84L39.268,8.837    c-2.035,0.042-4.597,1.682-5.056,3.704l-6.99,30.92c-0.462,2.023,0.793,3.673,2.806,3.705h16.5    C44.514,47.134,43.262,45.484,43.721,43.46z" fill="#0071BB"/><path d="M70.54,8.844L55.766,8.842c-0.003,0-0.005,0-0.005,0c-0.01,0-0.021,0.001-0.033,0.001    c-2.03,0.063-4.56,1.69-5.02,3.698l-6.986,30.92c-0.459,2.023,0.793,3.673,2.807,3.705h1.998h9.154h4.37    c1.985-0.1,3.913-1.708,4.365-3.694l6.988-30.918C73.87,10.507,72.588,8.844,70.54,8.844z" fill="#009DA4"/><path d="M39.553,31.366h0.257c0.236,0,0.394-0.079,0.469-0.235l0.667-0.999h1.786l-0.372,0.656h2.14l-0.271,1.006    h-2.547c-0.294,0.442-0.655,0.649-1.089,0.627h-1.327L39.553,31.366 M39.261,32.808h4.69L43.653,33.9h-1.887l-0.287,1.055h1.835    l-0.298,1.093H41.18l-0.426,1.559c-0.105,0.261,0.033,0.378,0.415,0.352h1.495l-0.276,1.014h-2.873    c-0.545,0-0.731-0.311-0.561-0.935l0.545-1.989h-1.174l0.297-1.093h1.173l0.288-1.054h-1.121L39.261,32.808z M46.747,30.127    l-0.074,0.639c0,0,0.886-0.665,1.688-0.665h2.971l-1.137,4.11c-0.094,0.472-0.498,0.703-1.211,0.703h-3.366l-0.788,2.889    c-0.046,0.155,0.019,0.235,0.188,0.235h0.662l-0.243,0.894h-1.684c-0.646,0-0.915-0.194-0.807-0.583l2.226-8.221L46.747,30.127    L46.747,30.127z M49.261,31.287h-2.649l-0.318,1.11c0,0,0.442-0.319,1.181-0.331c0.735-0.012,1.575,0,1.575,0L49.261,31.287z     M48.302,33.862c0.196,0.026,0.306-0.053,0.317-0.235l0.164-0.585h-2.655l-0.223,0.82H48.302z M46.512,35.189h1.53l-0.029,0.662    h0.407c0.205,0,0.308-0.067,0.308-0.196l0.12-0.428h1.271l-0.17,0.624c-0.143,0.521-0.524,0.791-1.142,0.817h-0.815l-0.003,1.134    c-0.016,0.182,0.148,0.272,0.486,0.272h0.765l-0.246,0.896h-1.838c-0.516,0.023-0.768-0.22-0.762-0.741L46.512,35.189z" fill="#FFFFFF"/><path d="M53.014,31.413l0.355-1.251h1.795l-0.078,0.46c0,0,0.917-0.46,1.578-0.46s2.219,0,2.219,0l-0.354,1.251    H58.18l-1.673,5.889h0.35l-0.331,1.17h-0.35l-0.146,0.511h-1.737l0.145-0.511h-3.428l0.334-1.17h0.344l1.675-5.889H53.014     M54.951,31.413l-0.457,1.594c0,0,0.781-0.302,1.454-0.384c0.148-0.56,0.343-1.21,0.343-1.21H54.951z M54.283,33.754l-0.461,1.67    c0,0,0.868-0.427,1.463-0.462c0.17-0.645,0.343-1.207,0.343-1.207L54.283,33.754L54.283,33.754z M54.618,37.302l0.343-1.21h-1.339    l-0.346,1.21H54.618z M58.957,30.086h1.687l0.071,0.624c-0.01,0.158,0.084,0.231,0.283,0.231h0.299l-0.302,1.055h-1.239    c-0.475,0.026-0.718-0.155-0.74-0.545L58.957,30.086z M58.464,32.348h5.462l-0.32,1.134h-1.739l-0.299,1.052h1.739l-0.324,1.128    h-1.935l-0.438,0.665h0.948l0.218,1.325c0.026,0.132,0.144,0.196,0.345,0.196h0.293l-0.31,1.093h-1.041    c-0.539,0.026-0.817-0.155-0.841-0.546l-0.252-1.209l-0.861,1.286c-0.203,0.366-0.517,0.536-0.94,0.511h-1.59l0.31-1.093h0.496    c0.204,0,0.374-0.091,0.526-0.275l1.349-1.952h-1.738l0.322-1.128h1.888l0.298-1.051h-1.887L58.464,32.348z" fill="#FFFFFF"/><path d="M27.97,24.649c-0.207,1.016-0.688,1.797-1.434,2.353c-0.739,0.545-1.693,0.819-2.861,0.819    c-1.099,0-1.904-0.28-2.418-0.839c-0.356-0.398-0.534-0.904-0.534-1.515c0-0.253,0.031-0.524,0.091-0.817l1.245-5.999h1.878    l-1.227,5.931c-0.038,0.165-0.053,0.317-0.051,0.454c-0.002,0.303,0.074,0.552,0.227,0.747c0.223,0.289,0.583,0.432,1.086,0.432    c0.578,0,1.055-0.142,1.423-0.426c0.37-0.283,0.611-0.685,0.72-1.207l1.231-5.931h1.869L27.97,24.649" fill="#FFFFFF"/><path d="M29.702,22.287h1.328l-0.152,0.773l0.19-0.221c0.431-0.46,0.953-0.688,1.571-0.688    c0.558,0,0.96,0.163,1.213,0.487c0.249,0.327,0.318,0.778,0.2,1.357l-0.731,3.648h-1.364l0.661-3.307    c0.068-0.341,0.049-0.595-0.056-0.761c-0.104-0.164-0.301-0.245-0.587-0.245c-0.352,0-0.646,0.11-0.887,0.327    c-0.242,0.218-0.401,0.523-0.479,0.91l-0.609,3.077h-1.367L29.702,22.287" fill="#FFFFFF"/><path d="M44.921,22.287h1.328l-0.15,0.773l0.188-0.221c0.431-0.46,0.956-0.688,1.57-0.688    c0.558,0,0.962,0.163,1.213,0.487c0.247,0.327,0.319,0.778,0.197,1.357l-0.727,3.648h-1.366l0.66-3.307    c0.068-0.341,0.049-0.595-0.055-0.761c-0.107-0.164-0.301-0.245-0.586-0.245c-0.352,0-0.646,0.11-0.889,0.327    c-0.242,0.218-0.401,0.523-0.479,0.91l-0.61,3.077h-1.364L44.921,22.287" fill="#FFFFFF"/><path d="M35.862,22.289h1.472l-1.153,5.354h-1.468L35.862,22.289 M36.326,20.338h1.484l-0.277,1.299h-1.484    L36.326,20.338z" fill="#FFFFFF"/><path d="M38.636,27.236c-0.385-0.369-0.579-0.864-0.581-1.494c0-0.109,0.007-0.232,0.021-0.365    c0.015-0.137,0.032-0.268,0.058-0.391c0.174-0.868,0.547-1.56,1.118-2.068c0.572-0.511,1.262-0.767,2.069-0.767    c0.661,0,1.185,0.184,1.569,0.553c0.385,0.372,0.577,0.873,0.577,1.512c0,0.109-0.008,0.235-0.022,0.371    c-0.017,0.138-0.038,0.271-0.061,0.399c-0.171,0.857-0.542,1.54-1.114,2.041c-0.573,0.504-1.261,0.754-2.062,0.754    C39.543,27.781,39.02,27.599,38.636,27.236 M41.44,26.175c0.26-0.281,0.446-0.707,0.558-1.275c0.017-0.088,0.032-0.18,0.042-0.272    c0.01-0.091,0.013-0.176,0.013-0.253c0-0.33-0.083-0.587-0.252-0.768c-0.168-0.183-0.407-0.274-0.715-0.274    c-0.408,0-0.74,0.144-1,0.431c-0.263,0.286-0.449,0.721-0.566,1.298c-0.016,0.088-0.029,0.177-0.041,0.264    c-0.01,0.088-0.013,0.172-0.011,0.248c0,0.329,0.084,0.58,0.253,0.76c0.168,0.179,0.405,0.268,0.718,0.268    C40.849,26.6,41.181,26.458,41.44,26.175" fill="#FFFFFF"/><path d="M51.486,18.967h3.857c0.741,0,1.313,0.168,1.708,0.498c0.392,0.333,0.589,0.813,0.589,1.437v0.019    c0,0.118-0.009,0.253-0.02,0.398c-0.019,0.144-0.042,0.289-0.074,0.44c-0.171,0.826-0.565,1.489-1.175,1.993    c-0.611,0.502-1.335,0.754-2.168,0.754h-2.069l-0.639,3.138h-1.793L51.486,18.967 M52.45,22.999h1.716    c0.446,0,0.801-0.104,1.061-0.309c0.255-0.208,0.425-0.524,0.52-0.955c0.015-0.079,0.025-0.151,0.037-0.217    c0.006-0.062,0.012-0.125,0.012-0.185c0-0.307-0.108-0.53-0.328-0.669c-0.219-0.142-0.563-0.209-1.037-0.209h-1.457L52.45,22.999z    " fill="#FFFFFF"/><path d="M65.653,28.68c-0.565,1.203-1.104,1.907-1.421,2.232c-0.316,0.322-0.947,1.075-2.458,1.017l0.129-0.917    c1.274-0.393,1.963-2.163,2.355-2.944l-0.469-5.766l0.984-0.013h0.826l0.091,3.617l1.548-3.617h1.569L65.653,28.68" fill="#FFFFFF"/><path d="M61.271,22.724l-0.623,0.429c-0.651-0.51-1.245-0.825-2.392-0.293c-1.562,0.725-2.868,6.28,1.433,4.451    l0.246,0.29l1.691,0.044l1.112-5.047L61.271,22.724 M60.308,25.485c-0.271,0.801-0.879,1.331-1.354,1.181    c-0.475-0.148-0.645-0.922-0.369-1.725c0.272-0.804,0.882-1.333,1.354-1.182C60.413,23.907,60.585,24.682,60.308,25.485" fill="#FFFFFF"/></g></g></svg>