<svg viewBox="0 0 194 194" xmlns="http://www.w3.org/2000/svg" fill-rule="evenodd" clip-rule="evenodd" stroke-linejoin="round" stroke-miterlimit="1.414"><path d="M179.954 155.456c5.316 0 9.627-4.311 9.627-9.627V48.283c0-5.317-4.311-9.627-9.627-9.627H13.321c-5.317 0-9.628 4.31-9.628 9.627v97.546c0 5.316 4.311 9.627 9.628 9.627h166.633z" fill="#fefefe"/><path d="M179.954 154.856a9.004 9.004 0 0 0 6.384-2.644 9.001 9.001 0 0 0 2.644-6.383V48.283a9.004 9.004 0 0 0-2.644-6.384 9.004 9.004 0 0 0-6.384-2.644H13.321a9.004 9.004 0 0 0-6.384 2.644 9 9 0 0 0-2.644 6.384v97.546c0 2.492 1.01 4.75 2.644 6.383a9.002 9.002 0 0 0 6.384 2.644h166.633zm0 1.199H13.321a10.196 10.196 0 0 1-7.232-2.996 10.195 10.195 0 0 1-2.995-7.23V48.283c0-2.824 1.145-5.381 2.995-7.231a10.196 10.196 0 0 1 7.232-2.996h166.633c2.824 0 5.381 1.145 7.231 2.996a10.192 10.192 0 0 1 2.996 7.231v97.546c0 2.823-1.145 5.38-2.996 7.23a10.192 10.192 0 0 1-7.231 2.996z" fill-rule="nonzero"/><path d="M158.373 46.702c5.165.456 11.167-.987 15.42 1.747 4.255 2.431 7.217 6.913 6.989 12.079l-30.613.075c-.513.209-.836.988-1.443 1.444-4.254 5.242-8.509 10.559-12.914 15.649.532-5.622.778-11.414 1.538-17.036l-25.315-.057c-.171 5.052-.456 10.028-.76 14.814-1.139-5.47-5.621-11.471-11.318-13.067-2.659-.835-5.166-1.443-7.976-1.595l-43.755.152c0 .076-.152.076-.152 0-.076-4.862 2.279-9.268 6.533-11.926 1.823-1.064 3.797-2.035 6.001-2.187l97.765-.092z" fill="#ec1c24"/><path d="M26.196 66.985c-5.241-3.343-10.635-6.837-15.876-10.483l15.8-10.56.076.077v20.966zM11.953 56.596l13.18 8.565V47.766l-13.18 8.83z"/><path d="M180.782 99.421c0 .076-.075.076 0 .152-6.153-6.685-11.698-14.053-17.091-21.27l.075-.304c5.546-5.773 10.711-11.774 16.865-16.94l.151.076v38.286zM87.955 79.139c.075 1.823-1.14 3.266-2.507 4.406-3.495 2.658-8.622 1.386-13.142 1.595l.836-10.331c4.538.342 13.274-1.557 14.813 4.33zm60.922 19.598c.494 1.671 1.918 1.292 3.267 1.292h28.563c.228 5.317-3.039 10.634-8.053 12.761-1.899.836-4.025 1.216-6.229 1.216h-47.933l-58.036.152c-4.786-.38-9.572-4.026-11.395-8.584a15.368 15.368 0 0 1-.987-5.318l42.843-.227c6.457-.76 12.686-3.571 16.484-9.572 1.368-2.203 2.431-4.482 3.343-6.836-.456 5.469-.684 11.09-1.292 16.635 8.128-.076 25.144 0 25.144 0 .152-6.836.532-13.977.988-20.738l13.293 19.219z" fill="#ec1c24"/><path d="M3.545 118.708h185.792v27.412H3.545zm22.651-27.795c-5.241-3.342-10.635-6.836-15.876-10.483l15.8-10.559.076.076v20.966zM11.953 80.525l13.18 8.565V71.694l-13.18 8.831zm14.243 34.412c-5.241-3.343-10.635-6.837-15.876-10.484l15.8-10.558.076.076v20.966zm-14.243-10.389l13.18 8.565V95.718l-13.18 8.83zm16.826-57.422h8.178v1.105h-8.178zm8.177 8.016v1.073H28.78V54.97l6.602-4.163v-.023H28.78V49.71h8.176v1.313l-6.602 4.096v.023h6.602zm-.95 3.551v2.062c0 1.504-1.034 2.45-3.092 2.45-2.059 0-3.185-.935-3.185-2.37v-2.142h6.277zm-7.226-1.106v3.27c0 2.689 2.371 3.487 4.202 3.487 2.354 0 3.974-1.31 3.974-3.441v-3.316H28.78zm.981 8.858v4.147h-.981V65.34h8.177v1.105h-7.196z"/><path d="M32.133 75.39v-2.621l3.843 1.516v1.105h-3.843zm-.98-3.019v3.019H28.78v5.629h.981v-4.523h2.734v4.056h.98v-4.056h2.501v4.443h.98v-7.338l-8.176-3.327v1.196l2.373.901zm3.41 14.594c1.264-.058 1.662-1.108 1.662-2.032 0-.697-.194-1.872-1.434-1.872-.694 0-.922.491-1.035.97l-.535 2.335c-.25 1.061-.888 1.861-2.185 1.861-1.937 0-2.474-1.804-2.474-3.207 0-1.517.457-2.11.789-2.473.626-.691 1.309-.827 2.072-.827v1.03c-1.48 0-1.912 1.209-1.912 2.259 0 .798.205 2.144 1.377 2.144.853 0 1.126-.399 1.445-1.741l.387-1.678c.125-.536.501-1.747 1.923-1.747 1.275 0 2.531.834 2.531 2.82 0 2.859-1.711 3.143-2.611 3.188v-1.03zm2.393 7.217v1.074H28.78v-1.245l6.602-4.164v-.022H28.78v-1.074h8.176v1.313l-6.602 4.095v.023h6.602zm-8.177 2.556h8.178v1.104h-8.178zm8.177 8.015v1.074H28.78v-1.245l6.602-4.164v-.023H28.78v-1.073h8.176v1.313l-6.602 4.095v.023h6.602zm-3.793 5.959v3.587h-4.384v-.713l1.062-.261c-.776-.558-1.279-1.586-1.279-2.704 0-1.404.514-2.088.926-2.511 1.186-1.253 2.589-1.287 3.458-1.287 1.988 0 4.228 1.207 4.228 3.878 0 1.529-.866 3.224-2.694 3.462v-1.066c1.418-.353 1.714-1.552 1.714-2.453 0-1.472-1.169-2.682-3.305-2.682-1.667 0-3.378.548-3.378 2.727 0 .411.046 1.073.524 1.678.571.719 1.301.902 2.179.902v-2.557h.949z"/><path d="M181.343 61.014c0 .1-.4.299-.3 0h.3zM18.939 155.365h.1v-.099h-.099l-.001.099z" fill="#fefefe"/></svg>