<svg height="512" viewBox="0 0 512 512" width="512" xmlns="http://www.w3.org/2000/svg"><g fill-rule="evenodd" clip-rule="evenodd"><path d="M495.951 390.001a15.93 15.93 0 0 1-15.959 15.959H32.012c-8.748 0-15.963-7.123-15.963-15.959V122.005a15.94 15.94 0 0 1 15.963-15.965h447.98c8.836 0 15.959 7.13 15.959 15.965v267.996z" fill="#084e94"/><path d="M267.545 269.62c27.049.18 51.85-22.096 51.85-49.146 0-29.575-24.801-50.051-51.85-50.051h-23.357c-27.502 0-50.045 20.476-50.045 50.051 0 27.05 22.543 49.325 50.045 49.146h23.357z" fill="#fff"/><path d="M254.559 246.804v-53.742c10.82 4.147 18.484 14.609 18.484 26.871s-7.664 22.724-18.484 26.871m-39.045-26.871c0-12.262 7.662-22.724 18.486-26.871v53.742c-10.824-4.147-18.486-14.61-18.486-26.871m28.765-45.449c-25.068 0-45.447 20.383-45.447 45.448 0 25.072 20.379 45.356 45.447 45.449 25.066-.093 45.354-20.377 45.354-45.449 0-25.065-20.287-45.448-45.354-45.448z" fill="#084e94"/><path d="M143.373 303.522c0 3.968 2.887 4.51 5.502 4.51 11.271 0 15.061-8.564 15.061-16.414 0-9.828-6.313-16.859-16.414-16.859-2.164 0-3.152.18-4.148.18v28.583h-.001zm-5.139-24.616c0-4.782-2.436-4.418-4.777-4.511v-1.349c1.982.092 4.146.092 6.131.092 2.254 0 5.23-.092 9.107-.092 13.615 0 21.01 9.106 21.01 18.392 0 5.139-3.064 18.215-21.643 18.215-2.705 0-5.139-.086-7.572-.086-2.346 0-4.691.086-7.033.086v-1.35c3.154-.271 4.688-.45 4.777-3.969v-25.428zm38.866-1.262c-1.352 0-2.523-1.264-2.523-2.613 0-1.355 1.26-2.525 2.523-2.525 1.352 0 2.615 1.084 2.615 2.525 0 1.349-1.174 2.613-2.615 2.613m-5.592 30.66h.992c1.445 0 2.527 0 2.527-1.713v-14.246c0-2.256-.814-2.619-2.707-3.61v-.899c2.436-.721 5.41-1.713 5.592-1.893.361-.184.721-.271.9-.271.271 0 .449.358.449.809v20.111c0 1.713 1.084 1.713 2.615 1.713h.904v1.35c-1.807 0-3.697-.086-5.504-.086-1.891 0-3.785.086-5.77.086v-1.351h.002zm16.232-15.602c0-1.984-.631-2.525-3.064-3.519v-.991c2.252-.721 4.418-1.35 6.943-2.521.18 0 .268.18.268.537v3.432c3.07-2.168 5.592-3.969 9.107-3.969 4.422 0 6.045 3.242 6.045 7.395v13.525c0 1.713 1.17 1.713 2.613 1.713h.902v1.35c-1.803 0-3.607-.086-5.5-.086-1.895 0-3.789.086-5.684.086v-1.35h.902c1.535 0 2.527 0 2.527-1.713v-13.617c0-2.977-1.807-4.418-4.783-4.418-1.711 0-4.324 1.35-6.131 2.526v15.509c0 1.713 1.172 1.713 2.617 1.713h.992v1.35c-1.803 0-3.697-.086-5.592-.086-1.893 0-3.787.086-5.682.086v-1.35h.992c1.445 0 2.525 0 2.525-1.713v-13.889h.003zm36.16.814c1.264 0 1.441-.722 1.441-1.356 0-2.611-1.623-4.774-4.6-4.774-3.154 0-5.41 2.341-6.041 6.131h9.2zm-9.289 1.713c-.182.45-.182 1.263 0 2.977.271 5.046 3.516 9.106 7.666 9.106 2.887 0 5.139-1.534 7.123-3.518l.721.721c-2.434 3.246-5.41 5.952-9.738 5.952-8.295 0-10.01-8.115-10.01-11.448 0-10.284 6.943-13.348 10.641-13.348 4.24 0 8.746 2.706 8.836 8.295 0 .271 0 .628-.09.898l-.449.364h-14.7v.001zm16.412 13.075h1.441c1.445 0 2.527 0 2.527-1.713v-14.788c0-1.626-1.984-1.897-2.705-2.348v-.721c3.785-1.714 5.859-3.063 6.4-3.063.271 0 .451.18.451.723v4.688h.092c1.26-1.984 3.516-5.411 6.67-5.411 1.355 0 3.068.9 3.068 2.793 0 1.441-.992 2.704-2.525 2.704-1.623 0-1.623-1.263-3.426-1.263-.902 0-3.879 1.177-3.879 4.331v12.354c0 1.713 1.082 1.713 2.525 1.713h2.977v1.35c-2.887 0-5.143-.086-7.395-.086-2.072 0-4.328.086-6.223.086v-1.349h.002zm20.198-5.952c.721 3.519 2.797 6.401 6.584 6.401 3.154 0 4.328-1.891 4.328-3.697 0-6.223-11.451-4.238-11.451-12.624 0-2.977 2.346-6.761 8.115-6.761 1.713 0 3.879.537 5.953 1.529l.359 5.323h-1.174c-.541-3.247-2.344-5.139-5.68-5.139-2.164 0-4.148 1.171-4.148 3.427 0 6.13 12.174 4.238 12.174 12.532 0 3.426-2.795 7.123-9.016 7.123-2.076 0-4.51-.722-6.404-1.8l-.543-6.045.903-.269zm62.4-19.841h-1.264c-.992-6.131-5.41-8.564-11.27-8.564-6.045 0-14.787 4.061-14.787 16.594 0 10.641 7.572 18.213 15.688 18.213 5.139 0 9.471-3.518 10.549-9.014l1.176.266-1.176 7.664c-2.25 1.355-8.201 2.798-11.627 2.798-12.27 0-20.02-7.937-20.02-19.749 0-10.727 9.557-18.484 19.834-18.484 4.24 0 8.387 1.441 12.447 2.797l.45 7.479zm1.891 25.793h.992c1.535 0 2.527 0 2.527-1.713v-29.219c0-3.426-.721-3.512-2.791-4.146v-.813c2.162-.629 4.324-1.62 5.41-2.249.629-.271.984-.543 1.17-.543.357 0 .449.271.449.722v36.249c0 1.713 1.172 1.713 2.613 1.713h.906v1.35c-1.807 0-3.611-.086-5.504-.086-1.891 0-3.789.086-5.773.086v-1.351h.001zm33.73-1.534c0 .991.541.991 1.441.991h2.07v1.086c-2.25.178-6.488 1.262-7.48 1.62l-.271-.179v-4.24c-3.154 2.619-5.594 4.419-9.291 4.419-2.885 0-5.768-1.8-5.768-6.224v-13.432c0-1.356-.271-2.705-3.154-2.977v-.992c1.891 0 6.037-.363 6.76-.363.541 0 .541.363.541 1.533v13.525c0 1.535 0 6.045 4.596 6.045 1.807 0 4.154-1.355 6.316-3.154V290.36c0-1.084-2.525-1.626-4.418-2.168v-.992c4.775-.266 7.666-.721 8.207-.721.451 0 .451.363.451.992v19.299zm10.369-3.064c0 2.071 1.893 5.411 5.41 5.411 5.682 0 8.021-5.503 8.021-10.191 0-5.681-4.324-10.37-8.385-10.37-1.984 0-3.604 1.263-5.047 2.434v12.716zm0-14.251c2.162-1.8 4.961-3.784 7.844-3.784 6.131 0 9.736 5.318 9.736 11 0 6.943-5.047 13.796-12.533 13.796-3.875 0-5.859-1.264-7.303-1.8l-1.533 1.171-1.084-.542c.455-3.154.727-6.223.727-9.379v-22.545c0-3.426-.813-3.512-2.797-4.146v-.813c2.07-.629 4.324-1.62 5.41-2.249.541-.271.992-.543 1.17-.543.271 0 .363.271.363.722v19.112zm-226.248 50.68h.453c.992 0 2.074-.093 2.074-1.626v-14.875c0-1.534-1.082-1.713-2.074-1.713h-.453v-.813c1.086 0 2.799.092 4.24.092s3.154-.092 4.508-.092v.813h-.451c-.992 0-2.072.179-2.072 1.713v14.875c0 1.533 1.08 1.626 2.072 1.626h.451v.899c-1.443 0-3.154-.086-4.508-.086-1.441 0-3.154.086-4.24.086v-.899z" fill="#fff"/><path d="M141.932 340.948v-.635h-.271c-.992 0-2.252-.179-2.252-1.805v-14.875c0-1.627 1.26-1.805 2.252-1.805h.271v-.628c-1.264 0-2.975.179-4.328.179s-2.977-.179-4.059-.179v.629h.18c1.084 0 2.256.178 2.256 1.805v14.875c0 1.626-1.172 1.805-2.256 1.805h-.18v.635c1.082-.093 2.705-.185 4.059-.185s2.976.091 4.328.184m.179.178c-1.443 0-3.154-.092-4.508-.092-1.441 0-3.064.092-4.24.092h-.088v-1.084h.449c1.084 0 1.984-.086 2.074-1.533v-14.967c-.09-1.35-.99-1.442-2.074-1.442h-.449v-1.171h.088c1.176 0 2.799.18 4.24.18s3.154-.18 4.508-.18h.092v1.171h-.543c-.992 0-1.982.093-1.982 1.534v14.875c0 1.447.99 1.533 1.982 1.533h.543v1.084h-.092zm19.569-5.68l.09-.094v-10.727c0-2.348-1.623-2.705-2.527-2.705h-.627v-.813c1.352 0 2.705.092 4.057.092 1.17 0 2.344-.092 3.426-.092v.813h-.359c-1.262 0-2.523.271-2.523 3.697v12.982c0 .992 0 1.984.088 2.884h-1.084l-14.697-16.409v11.72c0 2.526.541 3.34 2.707 3.34h.539v.899c-1.26 0-2.523-.086-3.697-.086-1.264 0-2.613.086-3.875.086v-.899h.361c1.982 0 2.615-1.264 2.615-3.604v-11.996c0-1.621-1.354-2.527-2.615-2.527h-.361v-.898c1.08 0 2.162.092 3.246.092.9 0 1.713-.092 2.523-.092l12.713 14.337z" fill="#fff"/><path d="M161.592 335.353zm.088.093l.09-.094-.09.094zm.539 5.86h.996c-.182-.813-.182-1.806-.182-2.705v-12.982c0-3.426 1.443-3.789 2.705-3.789h.271v-.63c-1.082 0-2.256.179-3.43.179-1.26 0-2.523-.179-3.787-.179v.629h.449c.904 0 2.619.363 2.619 2.797v10.82h-.092l-.09.086-12.713-14.332c-.811 0-1.623.179-2.523.179-1.084 0-2.166-.179-3.156-.179v.629h.271c1.352 0 2.703.991 2.703 2.705v11.996c0 2.249-.631 3.783-2.703 3.783h-.271v.542c1.262 0 2.521-.092 3.785-.092 1.174 0 2.348.092 3.52.092v-.542h-.361c-2.254 0-2.797-.992-2.797-3.519v-12.083l14.786 16.595zm1.084.271h-1.172l-14.43-16.144v11.361c0 2.526.361 3.247 2.527 3.247h.629v1.084h-.18c-1.17 0-2.434-.092-3.607-.092-1.264 0-2.613.092-3.875.092h-.182v-1.084h.543c1.891 0 2.434-1.263 2.434-3.512v-11.996c0-1.535-1.264-2.435-2.434-2.435h-.543v-1.085h.182c1.08 0 2.162.094 3.246.094.811 0 1.713-.094 2.613-.094l12.537 14.16v-10.549c0-2.256-1.535-2.526-2.35-2.526h-.717v-1.085h.09c1.352 0 2.705.094 3.965.094 1.174 0 2.348-.094 3.518-.094h.182v1.085h-.541c-1.172 0-2.436.093-2.436 3.519v12.982c0 .992 0 1.984.18 2.798v.179h-.179v.001zm7.123-19.027c-2.162 0-2.254.449-2.705 2.618h-.811c.09-.813.27-1.626.361-2.439.09-.808.18-1.62.18-2.435h.631c.271.814.992.814 1.713.814h14.787c.725 0 1.445 0 1.535-.9l.631.086c-.088.814-.182 1.535-.27 2.348-.09.808-.09 1.535-.09 2.342l-.814.271c-.088-.992-.268-2.705-2.162-2.705h-4.689v15.15c0 2.256.992 2.435 2.434 2.435h.543v.899c-1.174 0-3.158-.086-4.689-.086-1.713 0-3.697.086-4.871.086v-.899h.543c1.621 0 2.434-.093 2.434-2.348V322.55h-4.691z" fill="#fff"/><path d="M181.699 341.126c-1.174 0-3.158-.092-4.689-.092-1.713 0-3.697.092-4.781.092h-.178v-1.084h.721c1.531 0 2.166-.086 2.166-2.255v-15.146h-4.512v-.272h4.779v15.417c0 2.255-.902 2.526-2.434 2.526h-.451v.542c1.082 0 3.066-.092 4.689-.092 1.531 0 3.426.092 4.508.092v-.542h-.361c-1.441 0-2.523-.357-2.523-2.613v-15.33h4.779c1.984 0 2.162 1.713 2.256 2.705l.627-.178c0-.721 0-1.534.094-2.256 0-.721.178-1.441.271-2.162l-.453-.093c-.09.813-.9.813-1.625.813h-14.877c-.721 0-1.441 0-1.713-.813h-.453c0 .813-.088 1.534-.178 2.342-.09.813-.182 1.534-.271 2.255h.543c.449-1.984.631-2.613 2.793-2.613v.272c-2.072.087-2.072.357-2.521 2.526v.087h-1.174l.088-.18c.092-.721.271-1.533.271-2.434.182-.721.182-1.533.182-2.348v-.178h.901l.092.092c.178.721.721.721 1.441.807h14.877c.725-.086 1.354-.086 1.354-.807v-.092h.182l.811.092v.179c-.18.722-.268 1.534-.361 2.255v2.434h-.088l-1.082.358v-.179c0-1.078-.182-2.613-1.984-2.613h-4.51v15.06c0 2.164.902 2.342 2.254 2.342h.633v1.084h-.093zm5.949-.991h.453c.992 0 2.072-.093 2.072-1.626v-14.875c0-1.534-1.08-1.713-2.072-1.713h-.453v-.813c1.805 0 4.781.092 7.125.092 2.436 0 5.412-.092 7.307-.092 0 1.262 0 3.154.088 4.325l-.902.271c-.09-1.892-.449-3.334-3.426-3.334h-3.969v7.487h3.338c1.713 0 2.072-.993 2.254-2.526h.902c-.092 1.078-.092 2.256-.092 3.333 0 1.085 0 2.169.092 3.247l-.902.18c-.182-1.714-.182-2.791-2.166-2.791h-3.426v6.58c0 1.891 1.625 1.891 3.426 1.891 3.426 0 4.961-.271 5.771-3.512l.813.271c-.359 1.441-.721 2.97-.902 4.504-1.893 0-5.139-.086-7.666-.086-2.615 0-6.041.086-7.664.086v-.899z" fill="#fff"/><path d="M202.801 340.855c.268-1.355.631-2.798.99-4.239l-.631-.178c-.813 3.154-2.438 3.518-5.863 3.426-1.801 0-3.604 0-3.604-1.984v-6.76h3.604c1.984 0 2.166 1.171 2.346 2.791l.543-.086v-6.402h-.543c-.18 1.529-.633 2.521-2.434 2.521h-3.516v-7.751h4.146c2.977 0 3.426 1.533 3.516 3.333l.631-.179c0-.813-.09-1.805-.09-2.797 0-.45 0-.9.09-1.35-1.98 0-4.867.179-7.213.179-2.344 0-5.23-.179-6.943-.179v.629h.271c.992 0 2.254.178 2.254 1.805v14.875c0 1.626-1.262 1.805-2.254 1.805h-.271v.542c1.623 0 4.961-.092 7.482-.092 2.436 0 5.682.091 7.489.091m.178.271c-1.893 0-5.139-.092-7.666-.092-2.615 0-6.041.092-7.664.092h-.09v-1.084h.543c.992 0 1.984-.086 1.984-1.533v-14.967c0-1.35-.992-1.442-1.984-1.442h-.543v-1.085h.09c1.805 0 4.689.094 7.125.094s5.322-.094 7.307-.094h.088v1.535c0 .992 0 2.076.09 2.884v.092l-.09.093-.992.271v-.185c-.182-1.892-.453-3.154-3.336-3.24h-3.879v7.209h3.248c1.623 0 1.982-.809 2.162-2.342v-.093h1.084v.093c0 1.078-.09 2.256-.09 3.333 0 1.085.09 2.169.09 3.247v.094h-.09l-.994.271v-.185c-.18-1.714-.268-2.705-2.162-2.705h-3.248v6.494c0 1.805 1.535 1.713 3.336 1.805 3.426-.092 4.871-.271 5.682-3.426v-.092h.182l.902.179v.185c-.453 1.527-.721 2.97-.994 4.504v.092h-.091v-.002zm8.474-10.369h1.354c2.887 0 4.42-1.084 4.42-4.418 0-2.613-1.623-4.239-4.148-4.239-.9 0-1.26.093-1.625.179v8.478h-.001zm-3.697-6.674c0-2.076-1.17-2.162-1.98-2.162h-.541v-.813c.902 0 2.705.092 4.418.092s3.064-.092 4.6-.092c3.607 0 6.762.991 6.762 5.051 0 2.521-1.713 4.147-3.969 4.961l4.871 7.302c.811 1.263 1.443 1.62 2.795 1.713v.899c-.9 0-1.895-.086-2.795-.086-.902 0-1.801.086-2.705.086-2.166-2.883-4.057-5.952-5.951-9.285h-1.807v6.131c0 2.255.996 2.255 2.256 2.255h.543v.899c-1.625 0-3.248-.086-4.871-.086-1.354 0-2.705.086-4.146.086v-.899h.541c.992 0 1.98-.45 1.98-1.534v-14.518z" fill="#fff"/><path d="M212.807 330.664c2.797-.086 4.238-1.077 4.332-4.325-.094-2.526-1.625-4.061-4.061-4.061-.811 0-1.172 0-1.531.092v8.294h1.26zm-1.354.185h-.178V322.1h.09c.453 0 .813-.093 1.713-.093 2.525 0 4.238 1.719 4.238 4.332 0 3.334-1.623 4.51-4.51 4.51h-1.353zm0 .807h1.896l.092.093c1.803 3.247 3.697 6.309 5.77 9.199.904 0 1.803-.185 2.705-.185.9 0 1.803.092 2.705.092v-.542c-1.352-.179-1.984-.629-2.795-1.805l-4.959-7.389.178-.092c2.166-.906 3.879-2.348 3.879-4.869 0-3.967-3.064-4.873-6.672-4.959-1.535 0-2.887.179-4.6.179s-3.338-.179-4.328-.179v.629h.451c.9 0 2.074.178 2.074 2.348V338.6c0 1.17-.992 1.713-2.074 1.713h-.451v.635c1.352 0 2.703-.185 4.057-.185 1.533 0 3.158.185 4.781.185v-.635h-.453c-1.26 0-2.434-.179-2.434-2.434v-6.224h.178v.001zm13.258 9.47c-.992 0-1.895-.092-2.795-.092-.902 0-1.801.092-2.797.092-2.162-2.883-4.055-5.951-5.859-9.198h-1.713v5.952c0 2.162.902 2.162 2.162 2.162h.721v1.084h-.178c-1.625 0-3.248-.092-4.871-.092-1.354 0-2.705.092-4.146.092h-.09v-1.084h.631c.992 0 1.893-.449 1.893-1.441v-14.518c-.09-1.983-.992-1.983-1.893-1.983h-.631v-1.085h.09c.902 0 2.705.094 4.418.094s3.064-.094 4.6-.094c3.607 0 6.943.992 6.943 5.145 0 2.521-1.715 4.147-3.969 5.047l4.779 7.216c.811 1.171 1.354 1.442 2.705 1.62h.09v1.084h-.09v-.001zm19.387-5.68l.09-.094v-10.727c0-2.348-1.713-2.705-2.523-2.705h-.631v-.813c1.352 0 2.705.092 3.967.092 1.172 0 2.346-.092 3.516-.092v.813h-.359c-1.264 0-2.523.271-2.523 3.697v12.982c0 .992 0 1.984.09 2.884h-1.082l-14.699-16.409v11.72c0 2.526.543 3.34 2.705 3.34h.539v.899c-1.26 0-2.523-.086-3.697-.086-1.352 0-2.611.086-3.875.086v-.899h.361c1.982 0 2.615-1.264 2.615-3.604v-11.996c0-1.621-1.352-2.527-2.615-2.527h-.361v-.898c1.082 0 2.162.092 3.248.092.809 0 1.713-.092 2.523-.092l12.711 14.337z" fill="#fff"/><path d="M244.01 335.353zm.088.093l.09-.094-.09.094zm.543 5.86h.992c-.182-.813-.182-1.806-.182-2.705v-12.982c0-3.426 1.441-3.789 2.705-3.789h.271v-.63c-1.172 0-2.256.179-3.428.179-1.262 0-2.525-.179-3.879-.179v.629h.543c.902 0 2.615.363 2.615 2.797l-.092 10.82-.09.086-12.711-14.332c-.811 0-1.715.179-2.523.179-1.086 0-2.166-.179-3.158-.179v.629h.271c1.352 0 2.705.991 2.705 2.705v11.996c0 2.341-.633 3.783-2.705 3.783h-.271v.542c1.262 0 2.523-.092 3.697-.092 1.262 0 2.438.092 3.607.092v-.542h-.361c-2.254 0-2.797-.992-2.797-3.519v-12.083l14.791 16.595zm1.082.271h-1.174l-14.428-16.144v11.361c0 2.526.363 3.247 2.525 3.247h.633v1.084h-.182c-1.172 0-2.436-.092-3.609-.092-1.352 0-2.611.092-3.875.092h-.182v-1.084h.543c1.891 0 2.434-1.263 2.434-3.512v-11.996c0-1.535-1.26-2.435-2.434-2.435h-.543v-1.085h.182c1.082 0 2.162.094 3.248.094.809 0 1.623-.094 2.611-.094l12.537 14.16v-10.549c0-2.256-1.535-2.526-2.346-2.526h-.721v-1.085h.09c1.352 0 2.705.094 3.967.094 1.172 0 2.346-.094 3.516-.094h.182v1.085h-.541c-1.172 0-2.434.093-2.434 3.519v12.982c0 .992 0 1.984.178 2.798v.179h-.177v.001zm11.543-17.314l-2.707 8.114h5.32l-2.613-8.114zm-4.151 12.717c-.27.899-.631 1.712-.631 2.163 0 .898 1.264.991 2.166.991h.357v.899c-1.17-.086-2.342-.086-3.516-.086-.992 0-2.072 0-3.064.086v-.899h.182c1.08 0 2.072-.635 2.434-1.806l4.6-13.074c.359-1.078.898-2.526 1.082-3.605.902-.271 2.072-.813 2.615-1.17.09-.093.09-.093.178-.093.09 0 .182 0 .182.093.09.271.18.449.268.721l5.232 14.967c.361.992.721 1.984 1.082 2.883.359.814.902 1.085 1.895 1.085h.178v.899c-1.262-.086-2.611-.086-3.965-.086-1.352 0-2.797 0-4.238.086v-.899h.268c.635 0 1.805-.093 1.805-.813 0-.357-.271-1.078-.631-2.07l-1.082-3.246h-6.492l-.905 2.974z" fill="#fff"/><path d="M257.174 324.354h.092-.092zm-2.434 7.937h5.049l-2.523-7.665-2.526 7.665zm-.361.179l2.795-8.293h.092v.086-.086h.09l2.705 8.293h-5.682zm5.859 8.385c1.441 0 2.799-.092 4.15-.092 1.354 0 2.613.092 3.877.092v-.542h-.09c-.992 0-1.625-.357-1.984-1.264-.359-.807-.721-1.891-1.082-2.883l-5.23-14.967c-.09-.186-.18-.45-.271-.635v-.086h-.09c-.088 0-.088.086-.178.086-.543.363-1.713.905-2.527 1.084-.182 1.079-.721 2.527-1.08 3.605l-4.512 13.074c-.449 1.264-1.441 1.984-2.611 1.984h-.094v.542c.992 0 1.984-.092 2.977-.092 1.082 0 2.256.092 3.336.092v-.542h-.178c-.902 0-2.256-.179-2.256-1.17 0-.543.361-1.264.633-2.256l.088.093-.088-.093.902-3.063h6.672l1.172 3.426c.268.9.541 1.62.541 2.07 0 .906-1.262.992-1.896.992h-.18v.545h-.001zm8.116.271c-1.262 0-2.611-.092-3.965-.092-1.352 0-2.797.092-4.238.092h-.184v-1.084h.452c.723 0 1.623-.178 1.623-.721.092-.271-.178-1.078-.539-1.984l-1.084-3.246h-6.311l-.813 2.89c-.361.991-.629 1.712-.629 2.163 0 .721 1.082.898 1.984.898h.449v1.084h-.182c-1.08 0-2.252-.092-3.426-.092-.992 0-1.984.092-3.064.092h-.094v-1.084h.276c1.08 0 1.982-.628 2.344-1.799l4.598-13.075c.359-1.085.902-2.439 1.08-3.61.902-.271 2.074-.9 2.615-1.264h.271c.09 0 .271 0 .361.186.088.178.182.449.271.721l5.229 14.875c.363.991.635 2.076.992 2.889.359.807.902 1.078 1.805 1.078h.271v1.084h-.092zm1.263-18.576c-2.162 0-2.252.449-2.705 2.618h-.811c.09-.813.27-1.626.361-2.439.088-.808.088-1.62.088-2.435h.723c.271.814.992.814 1.715.814h14.785c.725 0 1.441 0 1.535-.9l.629.086c-.088.814-.18 1.535-.271 2.348-.086.808-.086 1.535-.086 2.342l-.814.271c-.09-.992-.268-2.705-2.162-2.705h-4.689v15.15c0 2.256.992 2.435 2.344 2.435h.633v.899c-1.174 0-3.154-.086-4.689-.086-1.713 0-3.697.086-4.871.086v-.899h.543c1.623 0 2.434-.093 2.434-2.348V322.55h-4.692z" fill="#fff"/><path d="M280.891 341.126c-1.174 0-3.154-.092-4.689-.092-1.713 0-3.697.092-4.871.092h-.09v-1.084h.633c1.623 0 2.254-.086 2.254-2.255v-15.146h-4.51v-.272h4.781v15.417c0 2.255-.902 2.526-2.525 2.526h-.361v.542c1.082 0 3.066-.092 4.689-.092 1.535 0 3.426.092 4.51.092v-.542h-.363c-1.441 0-2.523-.357-2.523-2.613v-15.33h4.779c1.982 0 2.162 1.621 2.256 2.705l.627-.178v-2.256c.094-.721.271-1.441.363-2.162l-.455-.093c-.18.813-.896.813-1.621.813h-14.877c-.721 0-1.441 0-1.713-.813h-.453c0 .813-.09 1.534-.18 2.342-.088.813-.18 1.534-.359 2.255h.633c.359-1.984.631-2.613 2.793-2.613v.272c-2.162.087-2.072.357-2.525 2.526v.087h-1.172l.094-.18c.088-.813.178-1.533.268-2.434.182-.721.182-1.533.182-2.348v-.178h.903l.09.092c.178.721.721.721 1.441.721l.092.086h14.785c.725-.086 1.35-.086 1.35-.807v-.092h.186l.813.092v.179c-.184.722-.271 1.534-.363 2.255-.092.808-.092 1.535-.092 2.342v.092l-1.08.358v-.179c-.088-1.078-.18-2.613-1.982-2.613h-4.508v15.06c0 2.164.811 2.342 2.252 2.342h.633v1.084h-.095zm6.13-.991h.357c1.084 0 2.168-.093 2.168-1.626v-14.875c0-1.534-1.084-1.713-2.168-1.713h-.357v-.813c1.078 0 2.797.092 4.238.092 1.443 0 3.063-.092 4.418-.092v.813h-.363c-1.078 0-2.162.179-2.162 1.713v14.875c0 1.533 1.084 1.626 2.162 1.626h.363v.899c-1.355 0-3.068-.086-4.51-.086-1.35 0-3.068.086-4.146.086v-.899z" fill="#fff"/><path d="M295.586 340.855v-.542h-.271c-.992 0-2.256-.179-2.256-1.805v-14.875c0-1.627 1.264-1.805 2.256-1.805h.271v-.628c-1.35 0-2.977.179-4.326.179-1.355 0-2.975-.179-4.152-.179v.629h.271c.992 0 2.254.178 2.254 1.805v14.875c0 1.626-1.262 1.805-2.254 1.805h-.271v.542c1.084 0 2.711-.092 4.061-.092 1.44 0 3.067.091 4.417.091m.092.271c-1.355 0-3.068-.092-4.51-.092-1.35 0-3.068.092-4.146.092h-.18v-1.084h.537c1.084 0 1.984-.086 1.984-1.533v-14.967c0-1.35-.9-1.442-1.984-1.442h-.537v-1.085h.18c1.078 0 2.797.094 4.238.094 1.35 0 3.063-.094 4.418-.094h.18v1.085h-.543c-1.078 0-1.984.093-1.984 1.534v14.875c0 1.447.906 1.533 1.984 1.533h.543v1.084h-.18zm11.812-.898c5.588 0 6.488-4.875 6.488-9.107 0-4.152-2.164-9.199-6.938-9.199-4.961 0-6.496 4.504-6.496 8.293.001 5.138 2.351 10.013 6.946 10.013m-.363-19.571c6.045 0 10.912 3.79 10.912 9.828 0 6.581-4.689 10.999-10.82 10.999-6.039 0-10.641-4.147-10.641-10.278 0-5.951 4.602-10.549 10.549-10.549z" fill="#fff"/><path d="M300.453 330.214c0-3.875 1.449-8.385 6.588-8.385 4.867 0 7.121 5.139 7.121 9.291 0 4.232-.99 9.193-6.672 9.193v-.272c5.502 0 6.402-4.689 6.402-8.922 0-4.152-2.256-9.021-6.852-9.113-4.875.093-6.316 4.418-6.316 8.207 0 5.053 2.256 9.828 6.766 9.828v.272c-4.689 0-7.037-4.96-7.037-10.099m-4.055.992c.088-6.038 4.689-10.641 10.729-10.641v.271c-5.859 0-10.457 4.511-10.457 10.37 0 6.045 4.598 10.1 10.549 10.1 6.045 0 10.643-4.325 10.734-10.82 0-5.951-4.781-9.649-10.826-9.649v-.271c6.137 0 11.004 3.789 11.004 9.92 0 6.674-4.781 11.092-10.912 11.092s-10.733-4.148-10.821-10.372zm40.846 4.24l.094-.094v-10.727c0-2.348-1.627-2.705-2.527-2.705h-.629v-.813c1.35 0 2.705.092 4.055.092 1.172 0 2.348-.092 3.52-.092v.813h-.451c-1.262 0-2.525.271-2.525 3.697v12.982c0 .992 0 1.984.178 2.884h-1.078l-14.701-16.409v11.72c0 2.526.449 3.34 2.619 3.34h.541v.899c-1.262 0-2.525-.086-3.703-.086-1.256 0-2.611.086-3.875.086v-.899h.363c1.984 0 2.613-1.264 2.613-3.604v-11.996c0-1.621-1.35-2.527-2.613-2.527h-.363v-.898c1.084 0 2.162.092 3.248.092.906 0 1.713-.092 2.525-.092l12.709 14.337z" fill="#fff"/><path d="M337.158 335.353zm.086.093l.094-.094-.094.094zm.543 5.86h.992c-.18-.813-.18-1.806-.18-2.705v-12.982c0-3.426 1.443-3.789 2.705-3.789h.271v-.63c-1.084 0-2.256.179-3.426.179-1.264 0-2.525-.179-3.789-.179v.629h.449c.9 0 2.619.363 2.619 2.797v10.82h-.092l-.094.086-12.709-14.332c-.813 0-1.619.179-2.525.179-1.086 0-2.076-.179-3.156-.179v.629h.271c1.35 0 2.705.991 2.705 2.705v11.996c0 2.249-.635 3.783-2.705 3.783h-.271v.542c1.264 0 2.527-.092 3.783-.092 1.178 0 2.348.092 3.52.092v-.542h-.357c-2.256 0-2.797-.992-2.797-3.519v-12.083l14.786 16.595zm1.084.271h-1.176l-14.426-16.144v11.361c0 2.526.357 3.247 2.527 3.247h.629v1.084h-.088c-1.262 0-2.525-.092-3.703-.092-1.256 0-2.611.092-3.875.092h-.178v-1.084h.541c1.893 0 2.434-1.263 2.434-3.512v-11.996c0-1.535-1.262-2.435-2.434-2.435h-.541v-1.085h.178c1.084 0 2.162.094 3.248.094.813 0 1.713-.094 2.617-.094l12.533 14.16v-10.549c0-2.256-1.533-2.526-2.348-2.526h-.721v-1.085h.092c1.35 0 2.705.094 3.969.094 1.17 0 2.342-.094 3.605-.094h.092v1.085h-.543c-1.17 0-2.434.093-2.434 3.519v12.982c0 .992 0 1.984.18 2.798v.179h-.178zm11.633-17.314h-.092l-2.619 8.114h5.324l-2.613-8.114zm-4.238 12.717c-.271.899-.635 1.712-.635 2.163 0 .898 1.264.991 2.162.991h.363v.899c-1.17-.086-2.342-.086-3.518-.086-.992 0-1.984 0-3.063.086v-.899h.18c1.084 0 2.076-.635 2.525-1.806l4.51-13.074c.357-1.078.9-2.526 1.078-3.605.9-.271 2.078-.813 2.619-1.17.088-.093.088-.093.18-.093.086 0 .178 0 .178.093.092.271.18.449.271.721l5.324 14.967c.264.992.629 1.984.984 2.883.365.814.994 1.085 1.898 1.085h.18v.899c-1.264-.086-2.527-.086-3.969-.086-1.355 0-2.797 0-4.238.086v-.899h.27c.721 0 1.807-.093 1.807-.813 0-.357-.271-1.078-.543-2.07l-1.17-3.246h-6.402l-.991 2.974z" fill="#fff"/><path d="M350.32 324.354h.092-.092zm-2.433 7.937h5.051l-2.525-7.665-2.526 7.665zm-.272.179l2.705-8.293h.184v.086h-.092.092v-.086h.088l2.705 8.293h-5.682zm5.774 8.385c1.441 0 2.791-.092 4.146-.092s2.619.092 3.875.092v-.542h-.086c-.992 0-1.627-.357-1.984-1.264-.363-.807-.721-1.891-1.084-2.883l-5.23-14.967c-.088-.186-.18-.45-.271-.635v-.086h-.086s-.092.086-.18.086c-.541.363-1.627.905-2.525 1.084-.18 1.079-.721 2.527-1.084 3.605l-4.512 13.074c-.449 1.264-1.441 1.984-2.611 1.984h-.094v.542c.992 0 1.984-.092 2.977-.092 1.176 0 2.256.092 3.34.092v-.542h-.186c-.898 0-2.248-.179-2.248-1.17 0-.543.357-1.264.629-2.256l.092.093-.092-.093.898-3.063h6.674l1.176 3.426c.271.9.543 1.62.543 2.07 0 .906-1.264.992-1.898.992h-.178v.545h-.001zm8.115.271c-1.264 0-2.613-.092-3.969-.092s-2.797.092-4.238.092h-.088v-1.084h.358c.721 0 1.713-.178 1.713-.721 0-.271-.271-1.078-.627-1.984l-1.086-3.246h-6.223l-.9 2.89c-.363.991-.629 1.712-.629 2.163 0 .721 1.08.898 1.979.898h.457v1.084h-.094c-1.17 0-2.342-.092-3.518-.092-.992 0-1.984.092-3.063.092h-.092v-1.084h.272c1.084 0 1.982-.628 2.34-1.799l4.604-13.075c.357-1.085.9-2.439 1.084-3.61.9-.271 2.07-.9 2.613-1.264h.271c.086 0 .27 0 .357.186.092.178.184.449.271.721l5.23 14.875c.363.991.629 2.076 1.084 2.889.271.807.809 1.078 1.713 1.078h.271v1.084h-.09zm7.215-2.883c0 1.171.807 1.441 1.713 1.621 1.17.092 2.434.092 3.783-.094 1.176-.178 2.17-.807 2.711-1.527.449-.635.721-1.448.9-2.076h.813c-.363 1.62-.727 3.247-1.084 4.867-2.527 0-5.053-.086-7.486-.086-2.52 0-5.047.086-7.572.086v-.899h.357c1.084 0 2.168-.093 2.168-1.892v-14.609c0-1.534-1.084-1.713-2.168-1.713h-.357v-.813c1.533 0 2.977.092 4.51.092 1.441 0 2.883-.092 4.326-.092v.813h-.721c-1.086 0-1.893.086-1.893 1.528v14.794z" fill="#fff"/><path d="M377.461 340.855c.365-1.534.723-2.976.994-4.597h-.543c-.18.629-.451 1.441-.9 2.07-.541.721-1.621 1.441-2.797 1.535-.807.092-1.527.178-2.248.178-.543 0-1.086-.086-1.535-.086-.992-.092-1.893-.542-1.893-1.713v-14.701c0-1.621 1.08-1.713 2.072-1.713h.627v-.628c-1.441 0-2.791.179-4.232.179s-2.891-.179-4.418-.179v.629h.266c1.084 0 2.346.178 2.346 1.805v14.609c0 1.892-1.262 2.07-2.346 2.07h-.266v.542c2.52 0 4.961-.092 7.48-.092 2.434.001 4.959.092 7.393.092m.094.271c-2.527 0-4.961-.092-7.486-.092-2.52 0-5.047.092-7.572.092h-.094v-1.084h.451c1.084 0 2.076-.086 2.076-1.799v-14.609c0-1.441-.992-1.534-2.076-1.534h-.451v-1.085h.094c1.533 0 2.977.094 4.51.094 1.441 0 2.883-.094 4.326-.094h.178v1.085h-.899c-1.086 0-1.807 0-1.807 1.442v14.701c0 1.078.721 1.35 1.627 1.441.449.086.992.086 1.535.086.721 0 1.441 0 2.162-.086 1.17-.185 2.162-.813 2.705-1.533.449-.629.627-1.356.813-1.984l.086-.092h1.086l-.094.092c-.27 1.713-.721 3.247-1.078 4.867v.092h-.092z" fill="#fff"/></g></svg>