<svg height="56" viewBox="0 0 87 56" width="87" xmlns="http://www.w3.org/2000/svg"><path d="M84.167 1.115H2.833C1.774 1.413 1 2.302 1 3.365v49.271c0 1.063.774 1.951 1.833 2.249h81.334c1.06-.298 1.833-1.187 1.833-2.249V3.365c0-1.063-.773-1.952-1.833-2.25z" fill="#003473"/><path d="M48.588 17.384l-.169-.298-1.178-.229.591-.806-.109-.195a23.414 23.414 0 0 0-4.223-5.1 23.18 23.18 0 0 0-15.618-6.022C15.031 4.733 4.615 15.15 4.615 28c0 12.85 10.416 23.268 23.267 23.268A23.188 23.188 0 0 0 43.5 45.247c4.697-4.258 7.646-10.406 7.646-17.245 0-3.827-.921-7.436-2.558-10.618z" fill="#ED1C2E"/><path d="M59.118 4.733A23.176 23.176 0 0 0 43.5 10.755a23.39 23.39 0 0 1 4.223 5.1l.109.195-.591.806 1.178.229.169.298a23.142 23.142 0 0 1 2.561 10.616c0 6.839-2.95 12.987-7.647 17.245a23.186 23.186 0 0 0 15.618 6.021c12.85 0 23.267-10.418 23.267-23.268-.001-12.849-10.419-23.264-23.269-23.264z" fill="#FCB131"/><path d="M18.677 25.653h2.869l-2.239 11.796h-2.868l2.238-11.796zm-8.61 0h7.447l-.428 2.231h-4.583l-.459 2.435h4.416l-.405 2.229h-4.433l-.505 2.671h4.581l-.423 2.229H7.829l2.238-11.795zm18.375 11.635a9.833 9.833 0 0 1-2.773.394c-3.039-.002-4.623-1.486-4.623-4.332 0-3.317 2.016-5.762 4.751-5.762 2.238 0 3.708 1.369 3.708 3.514 0 .713-.098 1.407-.334 2.388h-5.445a1.923 1.923 0 0 0-.026.305c0 1.121.806 1.692 2.384 1.692.972 0 1.849-.189 2.824-.612l-.466 2.413zm-1.436-5.759c.016-.201.023-.359.023-.485 0-.785-.477-1.247-1.286-1.247-.864 0-1.482.619-1.733 1.732h2.996zm28.948.334c0 2.187-.838 3.484-2.163 3.484-.963.018-1.548-.854-1.548-2.149 0-1.54.853-3.28 2.228-3.28 1.104 0 1.483.943 1.483 1.945zm2.937.037c0-2.428-1.484-4.317-4.277-4.317-3.223 0-5.307 2.298-5.307 5.688 0 2.428 1.232 4.41 4.278 4.41 3.079.001 5.306-1.761 5.306-5.781zm1.151-1.568c.149-.833.283-1.646.371-2.516h2.663l-.237 1.573h.032c.83-1.073 1.688-1.793 3.186-1.793 1.654 0 2.537 1.467 2.521 3.354-.007.646-.082 1.109-.261 2.006l-.846 4.494h-2.869l.848-4.512c.093-.498.187-.961.189-1.459.006-.574-.303-1.146-1.091-1.11-1.198 0-1.92 1.221-2.138 2.646l-.85 4.437h-2.867l1.349-7.12zm10.319-2.516h2.869l-1.821 9.633h-2.867l1.819-9.633zm-34.094 9.491c-.568.223-1.326.37-2.431.37-2.399 0-3.884-1.981-3.884-4.409 0-3.168 2.146-5.688 5.305-5.688.694 0 1.752.241 2.589.648l-.513 2.357a3.866 3.866 0 0 0-1.935-.56c-1.468 0-2.511 1.11-2.511 3.111 0 1.148.758 2.094 1.958 2.094.711 0 1.216-.129 1.832-.426l-.41 2.503zm43.147 0c-.566.223-1.325.37-2.43.37-2.4 0-3.885-1.981-3.885-4.409 0-3.168 2.146-5.688 5.305-5.688.693 0 1.753.241 2.589.648l-.513 2.357a3.873 3.873 0 0 0-1.936-.56c-1.467 0-2.51 1.11-2.51 3.111 0 1.148.758 2.094 1.958 2.094.711 0 1.216-.129 1.832-.426l-.41 2.503zm-34.961-9.491c-.364 2.979-1.011 5.999-1.516 8.984l-.123.648h2.902c1.046-5.763 1.396-7.405 3.589-6.827l1.055-2.729c-1.528-.561-2.514.24-3.402 1.379.08-.513.23-1.007.193-1.457l-2.698.002zm-2.143 7.486c-1.191.173-1.737-.161-1.737-.809 0-.462.11-.943.236-1.665l.488-2.682h1.502l.439-2.331h-1.483l.428-2.303h-2.868l-1.379 7.333c-.188 1.019-.252 1.5-.252 1.979 0 2.016 1.203 2.848 2.652 2.848a9.41 9.41 0 0 0 1.557-.153l.417-2.217zM28.442 20.154a3.333 3.333 0 0 0-.423-.029c-1.073 0-1.616.367-1.616 1.096 0 .447.265.732.679.732.771 0 1.327-.734 1.36-1.799zm1.377 3.206h-1.568l.036-.745c-.479.588-1.118.869-1.985.869-1.025 0-1.73-.801-1.73-1.965 0-1.752 1.225-2.773 3.325-2.773.216 0 .49.019.772.055.058-.237.073-.339.073-.467 0-.477-.33-.654-1.214-.654a6.308 6.308 0 0 0-2.005.324l.263-1.619c.944-.277 1.565-.381 2.267-.381 1.626 0 2.488.73 2.485 2.109.004.371-.059.826-.153 1.427-.164 1.042-.517 3.276-.566 3.82zm-6.04 0h-1.894l1.086-6.799-2.423 6.799h-1.29l-.159-6.762-1.142 6.762h-1.772l1.481-8.847h2.723l.165 4.952 1.662-4.952h3.028zm34.494-3.206a3.292 3.292 0 0 0-.42-.029c-1.074 0-1.617.367-1.617 1.096 0 .447.265.732.679.732.773 0 1.327-.734 1.358-1.799zm1.379 3.206h-1.568l.036-.745c-.479.588-1.117.869-1.984.869-1.026 0-1.729-.801-1.729-1.965 0-1.752 1.224-2.773 3.324-2.773.215 0 .488.019.771.055.059-.237.073-.339.073-.467 0-.477-.329-.654-1.214-.654a6.328 6.328 0 0 0-2.006.324c.021-.12.266-1.619.266-1.619.941-.277 1.564-.381 2.265-.381 1.628 0 2.487.73 2.486 2.109.003.371-.06.826-.153 1.427-.164 1.042-.518 3.276-.567 3.82zm-21.416-.109c-.519.163-.923.233-1.361.233-.968 0-1.495-.556-1.495-1.58-.014-.318.138-1.154.259-1.918.109-.672.821-4.91.821-4.91h1.883l-.22 1.088h1.136l-.256 1.73h-1.141c-.219 1.368-.531 3.072-.534 3.299 0 .371.198.533.648.533.216 0 .383-.021.511-.068l-.251 1.593zm5.772-.058a6.436 6.436 0 0 1-1.932.291c-2.107-.002-3.206-1.102-3.206-3.209 0-2.46 1.397-4.271 3.295-4.271 1.552 0 2.543 1.014 2.543 2.604 0 .529-.067 1.043-.231 1.77h-3.749c-.127 1.045.541 1.479 1.637 1.479.673 0 1.28-.139 1.955-.451l-.312 1.787zm-1.059-4.265c.012-.15.2-1.285-.876-1.285-.6 0-1.028.457-1.202 1.285h2.078zm-11.993-.489c0 .91.441 1.537 1.441 2.01.767.359.886.467.886.793 0 .449-.338.652-1.087.652a5.322 5.322 0 0 1-1.697-.285l-.26 1.663c.431.093.813.18 1.971.212 1.998 0 2.921-.761 2.921-2.404 0-.988-.387-1.568-1.335-2.006-.794-.364-.886-.447-.886-.781 0-.389.315-.588.927-.588.372 0 .88.039 1.361.108l.27-1.669a12.64 12.64 0 0 0-1.667-.141c-2.118.001-2.852 1.108-2.845 2.436zm22.262-2.245c.525 0 1.017.136 1.692.478l.311-1.921c-.279-.108-1.255-.748-2.082-.748-1.267 0-2.34.63-3.093 1.666-1.101-.364-1.552.372-2.104 1.104l-.491.115c.036-.24.069-.481.06-.725h-1.74c-.235 2.229-.656 4.484-.986 6.712l-.085.484h1.895c.315-2.055.488-3.37.595-4.261l.713-.395c.106-.398.439-.531 1.108-.516a8.1 8.1 0 0 0-.135 1.476c0 2.354 1.272 3.819 3.312 3.819.523 0 .977-.069 1.674-.258l.332-2.017c-.629.308-1.143.454-1.608.454-1.103 0-1.769-.814-1.769-2.156-.004-1.946.988-3.311 2.401-3.311zm16.033-1.681l-.421 2.556c-.518-.682-1.072-1.174-1.809-1.174-.955 0-1.824.725-2.395 1.791a15.718 15.718 0 0 1-1.611-.443v.006c.063-.596.088-.959.082-1.084h-1.738c-.236 2.229-.659 4.484-.987 6.712l-.088.484h1.896c.256-1.66.45-3.041.596-4.135.646-.585.972-1.095 1.625-1.062a6.19 6.19 0 0 0-.457 2.336c0 1.797.908 2.984 2.285 2.984.693 0 1.227-.238 1.746-.794l-.088.67h1.79l1.442-8.848-1.868.001zm-2.369 7.186c-.644 0-.97-.479-.97-1.42 0-1.413.609-2.416 1.469-2.416.651 0 1.005.494 1.005 1.408 0 1.427-.622 2.428-1.504 2.428z" fill="#003473"/><path fill="#FFF" d="M24.324 22.835H22.43l1.086-6.802-2.423 6.802h-1.291l-.159-6.761-1.141 6.761H16.73l1.481-8.847h2.723l.076 5.477 1.838-5.477h2.941zm4.663-3.204a3.045 3.045 0 0 0-.423-.031c-1.073 0-1.616.369-1.616 1.096 0 .447.265.734.68.734.77 0 1.327-.735 1.359-1.799zm1.378 3.204h-1.569l.036-.744c-.479.589-1.118.869-1.985.869-1.026 0-1.729-.802-1.729-1.966 0-1.752 1.224-2.773 3.325-2.773.214 0 .489.021.771.057.059-.238.074-.34.074-.469 0-.477-.33-.652-1.215-.652a6.265 6.265 0 0 0-2.005.322l.263-1.618c.943-.276 1.566-.382 2.267-.382 1.626 0 2.487.73 2.486 2.111.003.369-.059.826-.153 1.425-.165 1.042-.518 3.277-.566 3.82zm25.401-8.608l-.312 1.92c-.675-.34-1.165-.478-1.69-.478-1.414 0-2.406 1.367-2.406 3.315 0 1.343.666 2.154 1.769 2.154.467 0 .981-.145 1.608-.454l-.335 2.017c-.697.189-1.148.259-1.674.259-2.039 0-3.309-1.466-3.309-3.819 0-3.164 1.755-5.373 4.266-5.373.828 0 1.803.349 2.083.459zm3.052 5.404a2.996 2.996 0 0 0-.42-.031c-1.073 0-1.616.369-1.616 1.096 0 .447.265.734.679.734.769 0 1.327-.735 1.357-1.799zm1.381 3.204h-1.57l.036-.744c-.479.589-1.117.869-1.985.869-1.025 0-1.729-.802-1.729-1.966 0-1.752 1.224-2.773 3.324-2.773.216 0 .49.021.771.057.06-.238.075-.34.075-.469 0-.477-.33-.652-1.215-.652a6.29 6.29 0 0 0-2.006.322c.021-.119.265-1.618.265-1.618.942-.276 1.565-.382 2.267-.382 1.625 0 2.486.73 2.484 2.111.004.369-.057.826-.152 1.425-.164 1.042-.518 3.277-.565 3.82zm-21.418-.108c-.518.162-.923.233-1.36.233-.968 0-1.496-.556-1.496-1.58-.014-.319.139-1.154.259-1.918.109-.673.821-4.911.821-4.911h1.883l-.221 1.09h.967l-.258 1.729h-.969c-.219 1.369-.531 3.074-.534 3.299 0 .372.198.533.648.533.216 0 .382-.021.511-.067l-.251 1.592zm5.774-.057a6.473 6.473 0 0 1-1.933.29c-2.109-.001-3.206-1.103-3.206-3.21 0-2.46 1.397-4.271 3.293-4.271 1.555 0 2.544 1.014 2.544 2.605 0 .527-.067 1.043-.231 1.77h-3.749c-.126 1.044.541 1.479 1.636 1.479.674 0 1.28-.139 1.959-.453l-.313 1.79zm-1.06-4.268c.011-.15.199-1.284-.877-1.284-.599 0-1.027.458-1.202 1.284h2.079zM31.5 17.914c0 .912.442 1.539 1.443 2.01.767.361.885.467.885.795 0 .447-.338.65-1.087.65a5.345 5.345 0 0 1-1.697-.283l-.26 1.661c.43.094.813.18 1.97.213 1.999 0 2.922-.761 2.922-2.405 0-.988-.386-1.568-1.335-2.004-.794-.365-.885-.445-.885-.782 0-.39.314-.589.927-.589.371 0 .88.041 1.36.108l.27-1.669a13.141 13.141 0 0 0-1.667-.141c-2.118.001-2.853 1.108-2.846 2.436zm38.723 4.921h-1.791l.088-.669c-.521.555-1.052.794-1.746.794-1.377 0-2.287-1.186-2.287-2.985 0-2.394 1.412-4.41 3.082-4.41.733 0 1.291.299 1.809.98l.42-2.557h1.869l-1.444 8.847zm-2.795-1.662c.883 0 1.502-.999 1.502-2.425 0-.914-.354-1.41-1.003-1.41-.86 0-1.47 1.002-1.47 2.418 0 .941.326 1.417.971 1.417zm-5.526-5.532c-.234 2.227-.656 4.482-.986 6.711l-.085.483h1.894c.678-4.399.84-5.259 1.903-5.151.169-.9.483-1.689.72-2.086-.793-.166-1.236.282-1.816 1.134.046-.368.129-.726.113-1.091h-1.743zm-15.588 0c-.237 2.227-.658 4.482-.988 6.711l-.086.483h1.895c.678-4.399.842-5.259 1.902-5.151.169-.9.484-1.689.719-2.086-.792-.166-1.234.282-1.814 1.134.047-.368.129-.726.113-1.091h-1.741zm24.739 6.63a.564.564 0 1 1 1.127.001.564.564 0 0 1-1.127-.001zm.562.429a.43.43 0 1 0 .003-.859.43.43 0 0 0-.003.859zm-.075-.181h-.116v-.495h.21c.046 0 .089.002.127.025a.15.15 0 0 1 .063.124.135.135 0 0 1-.085.128l.091.218h-.13l-.074-.196h-.086v.196zm0-.281h.063c.023 0 .051.002.07-.01s.029-.035.029-.057c0-.02-.012-.04-.027-.051-.021-.012-.053-.009-.074-.009h-.061v.127z"/><path d="M79.029 41.973h-.302v-.166h.789v.166h-.305v.823h-.182zm.72-.166h.28l.26.668.255-.668h.281v.989h-.18v-.757h-.006l-.28.757h-.146l-.277-.757h-.006v.757h-.181z" fill="#FCB131"/></svg>