<svg height="56" viewBox="0 0 87 56" width="87" xmlns="http://www.w3.org/2000/svg"><path d="M86 52.636C86 53.941 84.84 55 83.407 55H3.593C2.161 55 1 53.941 1 52.636V3.365C1 2.059 2.161 1 3.593 1h79.814C84.84 1 86 2.059 86 3.365v49.271z" fill="#F1F2F2"/><path d="M39.349 8.834H25.708l13.56.003.081-.003zM13.5 44.588v2.578h2.887c-1.622-.026-2.75-1.102-2.887-2.578z" fill="none"/><path d="M55.761 8.842l-5.908-.002 5.875.003.033-.001z" fill="#DE4447"/><path d="M27.222 43.46l6.99-30.919c.459-2.021 3.021-3.661 5.056-3.704l-13.56-.002c-2.046 0-4.671 1.658-5.139 3.706L13.58 43.46a3.755 3.755 0 0 0-.08.554v.574c.137 1.477 1.265 2.552 2.887 2.578h13.641c-2.013-.032-3.268-1.682-2.806-3.706z" fill="#EC1C24"/><path d="M49.853 8.84l-10.504-.006-.081.003 10.585.003z" fill="#2A557C"/><path d="M43.721 43.46l6.987-30.919c.46-2.007 2.989-3.635 5.019-3.698l-5.874-.003-10.585-.003c-2.035.042-4.597 1.682-5.056 3.704l-6.99 30.92c-.462 2.023.793 3.673 2.806 3.705h16.5c-2.014-.032-3.266-1.682-2.807-3.706z" fill="#0071BB"/><path d="M70.54 8.844l-14.774-.002h-.005l-.033.001c-2.03.063-4.56 1.69-5.02 3.698l-6.986 30.92c-.459 2.023.793 3.673 2.807 3.705h15.522c1.985-.1 3.913-1.708 4.365-3.694l6.988-30.918c.466-2.047-.816-3.71-2.864-3.71z" fill="#009DA4"/><path d="M39.553 31.366h.257c.236 0 .394-.079.469-.235l.667-.999h1.786l-.372.656h2.14l-.271 1.006h-2.547c-.294.442-.655.649-1.089.627h-1.327l.287-1.055m-.292 1.442h4.69l-.298 1.092h-1.887l-.287 1.055h1.835l-.298 1.093H41.18l-.426 1.559c-.105.261.033.378.415.352h1.495l-.276 1.014h-2.873c-.545 0-.731-.311-.561-.935l.545-1.989h-1.174l.297-1.093h1.173l.288-1.054h-1.121l.299-1.094zm7.486-2.681l-.074.639s.886-.665 1.688-.665h2.971l-1.137 4.11c-.094.472-.498.703-1.211.703h-3.366l-.788 2.889c-.046.155.019.235.188.235h.662l-.243.894h-1.684c-.646 0-.915-.194-.807-.583l2.226-8.221 1.575-.001zm2.514 1.16h-2.649l-.318 1.11s.442-.319 1.181-.331c.735-.012 1.575 0 1.575 0l.211-.779zm-.959 2.575c.196.026.306-.053.317-.235l.164-.585h-2.655l-.223.82h2.397zm-1.79 1.327h1.53l-.029.662h.407c.205 0 .308-.067.308-.196l.12-.428h1.271l-.17.624c-.143.521-.524.791-1.142.817h-.815l-.003 1.134c-.016.182.148.272.486.272h.765l-.246.896h-1.838c-.516.023-.768-.22-.762-.741l.118-3.04zm6.502-3.776l.355-1.251h1.795l-.078.46s.917-.46 1.578-.46h2.219l-.354 1.251h-.349l-1.673 5.889h.35l-.331 1.17h-.35l-.146.511h-1.737l.145-.511H51.01l.334-1.17h.344l1.675-5.889h-.349m1.937 0l-.457 1.594s.781-.302 1.454-.384c.148-.56.343-1.21.343-1.21h-1.34zm-.668 2.341l-.461 1.67s.868-.427 1.463-.462c.17-.645.343-1.207.343-1.207l-1.345-.001zm.335 3.548l.343-1.21h-1.339l-.346 1.21h1.342zm4.339-7.216h1.687l.071.624c-.01.158.084.231.283.231h.299l-.302 1.055h-1.239c-.475.026-.718-.155-.74-.545l-.059-1.365zm-.493 2.262h5.462l-.32 1.134h-1.739l-.299 1.052h1.739l-.324 1.128h-1.935l-.438.665h.948l.218 1.325c.026.132.144.196.345.196h.293l-.31 1.093h-1.041c-.539.026-.817-.155-.841-.546l-.252-1.209-.861 1.286c-.203.366-.517.536-.94.511h-1.59l.31-1.093h.496c.204 0 .374-.091.526-.275l1.349-1.952h-1.738l.322-1.128h1.888l.298-1.051h-1.887l.321-1.136zM27.97 24.649c-.207 1.016-.688 1.797-1.434 2.353-.739.545-1.693.819-2.861.819-1.099 0-1.904-.28-2.418-.839-.356-.398-.534-.904-.534-1.515 0-.253.031-.524.091-.817l1.245-5.999h1.878l-1.227 5.931a1.901 1.901 0 0 0-.051.454c-.002.303.074.552.227.747.223.289.583.432 1.086.432.578 0 1.055-.142 1.423-.426.37-.283.611-.685.72-1.207l1.231-5.931h1.869l-1.245 5.998m1.732-2.362h1.328l-.152.773.19-.221c.431-.46.953-.688 1.571-.688.558 0 .96.163 1.213.487.249.327.318.778.2 1.357l-.731 3.648h-1.364l.661-3.307c.068-.341.049-.595-.056-.761-.104-.164-.301-.245-.587-.245-.352 0-.646.11-.887.327-.242.218-.401.523-.479.91L30 27.644h-1.367l1.069-5.357m15.219 0h1.328l-.15.773.188-.221c.431-.46.956-.688 1.57-.688.558 0 .962.163 1.213.487.247.327.319.778.197 1.357l-.727 3.648h-1.366l.66-3.307c.068-.341.049-.595-.055-.761-.107-.164-.301-.245-.586-.245-.352 0-.646.11-.889.327-.242.218-.401.523-.479.91l-.61 3.077h-1.364l1.07-5.357m-9.059.002h1.472l-1.153 5.354h-1.468l1.149-5.354m.464-1.951h1.484l-.277 1.299h-1.484l.277-1.299zm2.31 6.898c-.385-.369-.579-.864-.581-1.494a4.027 4.027 0 0 1 .079-.756c.174-.868.547-1.56 1.118-2.068.572-.511 1.262-.767 2.069-.767.661 0 1.185.184 1.569.553.385.372.577.873.577 1.512 0 .109-.008.235-.022.371a7.296 7.296 0 0 1-.061.399c-.171.857-.542 1.54-1.114 2.041-.573.504-1.261.754-2.062.754-.665 0-1.188-.182-1.572-.545m2.804-1.061c.26-.281.446-.707.558-1.275.017-.088.032-.18.042-.272.01-.091.013-.176.013-.253 0-.33-.083-.587-.252-.768-.168-.183-.407-.274-.715-.274-.408 0-.74.144-1 .431-.263.286-.449.721-.566 1.298a6.263 6.263 0 0 0-.041.264c-.01.088-.013.172-.011.248 0 .329.084.58.253.76.168.179.405.268.718.268.41-.002.742-.144 1.001-.427m10.046-7.208h3.857c.741 0 1.313.168 1.708.498.392.333.589.813.589 1.437v.019c0 .118-.009.253-.02.398a5.692 5.692 0 0 1-.074.44c-.171.826-.565 1.489-1.175 1.993-.611.502-1.335.754-2.168.754h-2.069l-.639 3.138h-1.793l1.784-8.677m.964 4.032h1.716c.446 0 .801-.104 1.061-.309.255-.208.425-.524.52-.955.015-.079.025-.151.037-.217.006-.062.012-.125.012-.185 0-.307-.108-.53-.328-.669-.219-.142-.563-.209-1.037-.209h-1.457l-.524 2.544zm13.203 5.681c-.565 1.203-1.104 1.907-1.421 2.232-.316.322-.947 1.075-2.458 1.017l.129-.917c1.274-.393 1.963-2.163 2.355-2.944l-.469-5.766.984-.013h.826l.091 3.617 1.548-3.617h1.569l-3.154 6.391m-4.382-5.956l-.623.429c-.651-.51-1.245-.825-2.392-.293-1.562.725-2.868 6.28 1.433 4.451l.246.29 1.691.044 1.112-5.047-1.467.126m-.963 2.761c-.271.801-.879 1.331-1.354 1.181-.475-.148-.645-.922-.369-1.725.272-.804.882-1.333 1.354-1.182.474.148.646.923.369 1.726" fill="#FFF"/></svg>